<svg xmlns="http://www.w3.org/2000/svg" fill-rule="evenodd" stroke-miterlimit="10" clip-rule="evenodd" viewBox="0 0 45 41">
  <path fill="#fff" fill-rule="nonzero" d="M13.87 36.24h9.23a9.61 9.61 0 009.67-9.41v-.12c0-7.42-6.4-13.44-14.28-13.44-7.9 0-14.29 6.02-14.29 13.44v.12a9.61 9.61 0 009.67 9.4z"/>
  <clipPath id="a">
    <path d="M6.86 15.51h23.25V34.1H6.86z"/>
  </clipPath>
  <g clip-path="url(#a)">
    <path fill="#67503b" fill-rule="nonzero" d="M14.73 34.1h7.51c4.27 0 7.84-3.4 7.87-7.66v-.1c0-6.03-5.2-10.93-11.62-10.93-6.42 0-11.63 4.9-11.63 10.94v.09a7.82 7.82 0 007.87 7.66z"/>
  </g>
  <path fill="none" stroke="#333" stroke-width="1.58" d="M13.87 36.24h9.23a9.61 9.61 0 009.67-9.41v-.12c0-7.42-6.4-13.44-14.28-13.44-7.9 0-14.29 6.02-14.29 13.44v.12a9.61 9.61 0 009.67 9.4z"/>
  <path fill="#333" fill-rule="nonzero" d="M9.96 3.96c-.9-.09-1.54.86-1.11 1.67l3.47 4.84v4.17c0 .48.4.87.87.87h10.33c.34 0 .66-.2.8-.53l1.06-2.47c.26-.61.39-1.26.39-1.92v-3c0-.6-.44-1.12-1.03-1.21L9.96 3.96z"/>
  <path fill="#333" fill-rule="nonzero" d="M25.27 8.2c.45.2 1.07.2 1.57 0 .23-.09.5-.27.87-.57.37-.3.8-.7 1.36-1.13a6.5 6.5 0 012.05-1.05 7.8 7.8 0 012.12-.3 7 7 0 014.15 1.16 6.54 6.54 0 012.1 2.46c.09.15.16.3.23.46l.2.54a7.61 7.61 0 010 4.04c-.27 1.18-.66 2.22-.93 3.19-.14.49-.27.99-.32 1.38-.05.41-.03.72.06.95l.03.07a1.24 1.24 0 01-2.26 1.02 4.38 4.38 0 01-.43-2.24c.04-.69.15-1.25.26-1.82.23-1.14.53-2.17.67-3.12.15-.96.13-1.81-.13-2.4l-.1-.22-.16-.26c-.1-.17-.21-.33-.34-.46-.24-.29-.5-.5-.79-.68-1.04-.64-3.18-.44-3.94.4-.3.26-.64.63-1.08 1.06a6.49 6.49 0 01-6.55 1.8l-.13-.05a2.25 2.25 0 111.5-4.23z"/>
</svg>
