<?xml version="1.0" encoding="UTF-8" standalone="no"?><!DOCTYPE svg PUBLIC "-//W3C//DTD SVG 1.1//EN" "http://www.w3.org/Graphics/SVG/1.1/DTD/svg11.dtd"><svg width="100%" height="100%" viewBox="0 0 44 44" version="1.1" xmlns="http://www.w3.org/2000/svg" xmlns:xlink="http://www.w3.org/1999/xlink" xml:space="preserve" xmlns:serif="http://www.serif.com/" style="fill-rule:evenodd;clip-rule:evenodd;stroke-linejoin:round;stroke-miterlimit:2;"><path d="M21.75,43.5c-5.813,0 -11.288,-2.25 -15.375,-6.375c-4.125,-4.087 -6.375,-9.563 -6.375,-15.375c0,-5.813 2.25,-11.288 6.375,-15.375c4.125,-4.125 9.563,-6.375 15.375,-6.375c5.813,0 11.288,2.25 15.375,6.375c4.125,4.125 6.375,9.563 6.375,15.375c0,5.813 -2.25,11.288 -6.375,15.375c-4.087,4.125 -9.563,6.375 -15.375,6.375Zm0,-41.25c-5.212,0 -10.087,2.024 -13.799,5.701c-3.715,3.674 -5.701,8.587 -5.701,13.799c0,5.212 2.024,10.087 5.701,13.799c3.674,3.715 8.587,5.701 13.799,5.701c5.212,0 10.087,-2.024 13.799,-5.701c3.715,-3.674 5.701,-8.587 5.701,-13.799c0,-5.212 -2.024,-10.087 -5.701,-13.799c-3.712,-3.677 -8.587,-5.701 -13.799,-5.701Z" style="fill-rule:nonzero;"/><path d="M23.864,21.756l5.666,-5.666c0.603,-0.603 0.603,-1.556 0,-2.108c-0.604,-0.604 -1.556,-0.604 -2.108,0l-5.666,5.666l-5.665,-5.717c-0.604,-0.6 -1.556,-0.6 -2.108,0c-0.604,0.603 -0.604,1.556 0,2.108l5.665,5.717l-5.716,5.667c-0.6,0.603 -0.6,1.555 0,2.108c0.301,0.301 0.701,0.45 1.054,0.45c0.352,0 0.752,-0.149 1.054,-0.45l5.716,-5.667l5.666,5.667c0.301,0.301 0.705,0.45 1.054,0.45c0.352,0 0.752,-0.149 1.054,-0.45c0.603,-0.604 0.603,-1.556 0,-2.108l-5.666,-5.667Z" style="fill-rule:nonzero;"/></svg>