<?xml version="1.0" encoding="UTF-8" standalone="no"?><!DOCTYPE svg PUBLIC "-//W3C//DTD SVG 1.1//EN" "http://www.w3.org/Graphics/SVG/1.1/DTD/svg11.dtd"><svg width="100%" height="100%" viewBox="0 0 40 40" version="1.1" xmlns="http://www.w3.org/2000/svg" xmlns:xlink="http://www.w3.org/1999/xlink" xml:space="preserve" xmlns:serif="http://www.serif.com/" style="fill-rule:evenodd;clip-rule:evenodd;stroke-linejoin:round;stroke-miterlimit:2;"><path d="M19.875,39.75c-10.95,0 -19.875,-8.925 -19.875,-19.875c0,-10.95 8.925,-19.875 19.875,-19.875c10.95,0 19.875,8.925 19.875,19.875c0,10.95 -8.925,19.875 -19.875,19.875Zm0,-37.5c-9.712,0 -17.625,7.913 -17.625,17.625c0,9.713 7.913,17.625 17.625,17.625c9.713,0 17.625,-7.912 17.625,-17.625c0,-9.713 -7.912,-17.625 -17.625,-17.625Z" style="fill-rule:nonzero;"/><path d="M28.313,15.375l-16.876,0c-0.637,0 -1.124,-0.487 -1.124,-1.125c0,-0.638 0.487,-1.125 1.125,-1.125l16.875,0c0.637,0 1.125,0.487 1.125,1.125c0,0.638 -0.488,1.125 -1.125,1.125Zm0,5.625l-16.875,0c-0.638,0 -1.125,-0.487 -1.125,-1.125c0,-0.638 0.487,-1.125 1.125,-1.125l16.875,0c0.637,0 1.125,0.487 1.125,1.125c0,0.638 -0.488,1.125 -1.125,1.125Z" style="fill-rule:nonzero;"/><path d="M28.313,26.625l-16.876,0c-0.637,0 -1.124,-0.487 -1.124,-1.125c0,-0.638 0.487,-1.125 1.125,-1.125l16.875,0c0.637,0 1.125,0.487 1.125,1.125c0,0.638 -0.488,1.125 -1.125,1.125Z" style="fill-rule:nonzero;"/></svg>