<?xml version="1.0" encoding="UTF-8" standalone="no"?><!DOCTYPE svg PUBLIC "-//W3C//DTD SVG 1.1//EN" "http://www.w3.org/Graphics/SVG/1.1/DTD/svg11.dtd"><svg width="100%" height="100%" viewBox="0 0 43 44" version="1.1" xmlns="http://www.w3.org/2000/svg" xmlns:xlink="http://www.w3.org/1999/xlink" xml:space="preserve" xmlns:serif="http://www.serif.com/" style="fill-rule:evenodd;clip-rule:evenodd;stroke-linejoin:round;stroke-miterlimit:2;"><path d="M21.731,43.481c-5.587,0 -11.137,-2.137 -15.375,-6.375c-8.475,-8.475 -8.475,-22.275 0,-30.75c8.475,-8.475 22.275,-8.475 30.75,0c0.45,0.45 0.45,1.163 0,1.575c-0.45,0.45 -1.162,0.45 -1.575,0c-7.612,-7.575 -19.987,-7.575 -27.6,0c-7.575,7.613 -7.575,19.988 0,27.6c7.613,7.613 19.988,7.613 27.563,0c0.45,-0.45 1.162,-0.45 1.575,0c0.45,0.45 0.45,1.163 0,1.575c-4.2,4.238 -9.75,6.375 -15.338,6.375Z" style="fill-rule:nonzero;"/><path d="M27.356,22.856l11.55,0l-3.712,3.713c-0.45,0.45 -0.45,1.162 0,1.575c0.45,0.45 1.162,0.45 1.575,0l5.625,-5.625c0.225,-0.225 0.337,-0.525 0.337,-0.788c0,-0.3 -0.112,-0.562 -0.337,-0.787l-5.625,-5.625c-0.225,-0.225 -0.525,-0.338 -0.788,-0.338c-0.262,0 -0.562,0.113 -0.787,0.338c-0.45,0.45 -0.45,1.162 0,1.575l3.712,3.712l-11.55,0c-0.637,0 -1.125,0.488 -1.125,1.125c0,0.638 0.488,1.125 1.125,1.125Zm-5.625,-2.25c-0.617,0 -1.125,0.508 -1.125,1.125c0,0.617 0.508,1.125 1.125,1.125c0.617,0 1.125,-0.508 1.125,-1.125c0,-0.617 -0.508,-1.125 -1.125,-1.125Z" style="fill-rule:nonzero;"/></svg>