<?xml version="1.0" encoding="UTF-8" standalone="no"?><!DOCTYPE svg PUBLIC "-//W3C//DTD SVG 1.1//EN" "http://www.w3.org/Graphics/SVG/1.1/DTD/svg11.dtd"><svg width="100%" height="100%" viewBox="0 0 401 402" version="1.1" xmlns="http://www.w3.org/2000/svg" xmlns:xlink="http://www.w3.org/1999/xlink" xml:space="preserve" xmlns:serif="http://www.serif.com/" style="fill-rule:evenodd;clip-rule:evenodd;stroke-linejoin:round;stroke-miterlimit:2;"><path d="M346.826,153.109l-32.262,0c-17.685,-49.888 -62.263,-85.313 -114.501,-85.313c-52.234,0 -96.815,35.425 -114.5,85.313l-32.259,0l0,95.375l32.259,0c17.685,49.887 62.266,85.312 114.5,85.312c52.238,0 96.816,-35.425 114.501,-85.312l32.262,0l0,-95.375Z" style="fill:#41362a;fill-rule:nonzero;"/><path d="M200.063,77.862c-48.49,0 -91.24,32.872 -107.237,82.116l-29.713,0l-3.937,0l0,81.637l33.65,0c15.997,49.244 58.747,82.119 107.237,82.119c48.488,0 91.244,-32.875 107.238,-82.119l33.653,0l0,-3.937l0,-73.763l0,-3.937l-3.941,0l-29.712,0c-15.994,-49.244 -58.75,-82.116 -107.238,-82.116Zm0,3.938c48.732,0 90.025,34.453 104.344,82.115l32.606,0l0,73.763l-32.606,0c-14.319,47.662 -55.612,82.118 -104.344,82.118c-48.731,0 -90.021,-34.456 -104.343,-82.118l-32.607,0l0,-73.763l32.607,0c14.322,-47.662 55.612,-82.115 104.343,-82.115Z" style="fill:#f8f5ed;fill-rule:nonzero;"/><path d="M200.063,265.899l2.188,4.435l4.894,0.709l-3.541,3.45l0.834,4.872l-4.375,-2.3l-4.378,2.3l0.838,-4.872l-3.541,-3.45l4.894,-0.709l2.187,-4.435Z" style="fill:#f8f5ed;fill-rule:nonzero;"/><path d="M217.601,262.759l1.503,3.037l3.356,0.491l-2.428,2.366l0.572,3.34l-3.003,-1.578l-3,1.578l0.575,-3.34l-2.431,-2.366l3.356,-0.491l1.5,-3.037Z" style="fill:#f8f5ed;fill-rule:nonzero;"/><path d="M182.526,262.759l1.5,3.037l3.356,0.491l-2.428,2.366l0.575,3.34l-3.003,-1.578l-3,1.578l0.572,-3.34l-2.428,-2.366l3.356,-0.491l1.5,-3.037Z" style="fill:#f8f5ed;fill-rule:nonzero;"/><path d="M129.026,253.915c0,0 23.584,38.366 65.672,43.369c0,0 0.825,-0.369 0.09,-1.153c0,0 -33.106,-1.825 -65.762,-42.216Z" style="fill:#f8f5ed;fill-rule:nonzero;"/><path d="M193.11,297.384c0,0 -7.787,-2.216 -9.403,-8.678c-1.619,-6.463 -1.334,-8.103 -1.334,-8.103c0,0 10.372,3.459 11.365,8.818c0.997,5.36 -0.628,7.963 -0.628,7.963Z" style="fill:#fffffd;fill-rule:nonzero;"/><path d="M182.263,294.393c0,0 -4.478,-1.181 -6.428,-6.697c-1.353,-3.825 -1.659,-10.925 -1.659,-10.925c0,0 8.1,5.691 8.672,10.441c0.575,4.75 -0.585,7.181 -0.585,7.181Z" style="fill:#fffffd;fill-rule:nonzero;"/><path d="M173.404,290.759c0,0 -6.172,-3.2 -6.944,-7.075c-1.478,-7.397 1.594,-9.216 1.594,-9.216c0,0 4.963,4.413 5.897,9.35c0.937,4.935 -0.547,6.941 -0.547,6.941Z" style="fill:#fffffd;fill-rule:nonzero;"/><path d="M164.107,285.875c0,0 -5.3,-4.629 -5.665,-7.576c-0.66,-5.318 0.04,-10.034 0.04,-10.034c0,0 5.838,3.988 6.819,9.094c0.95,4.94 -1.194,8.516 -1.194,8.516Z" style="fill:#fffffd;fill-rule:nonzero;"/><path d="M156.423,281.19c0,0 -5.919,-3.019 -6.413,-10.037c-0.262,-3.722 1.807,-8.475 1.807,-8.475c0,0 5.659,7.437 5.728,11.337c0.075,3.9 -1.122,7.175 -1.122,7.175Z" style="fill:#fffffd;fill-rule:nonzero;"/><path d="M147.77,274.325c0,0 -3.888,-5.444 -3.897,-10.154c-0.006,-4.709 2.447,-7.484 2.447,-7.484c0,0 3.393,4.672 3.525,10.197c0.131,5.531 -2.075,7.441 -2.075,7.441Z" style="fill:#fffffd;fill-rule:nonzero;"/><path d="M144.145,271.062c0,0 -15.385,-0.934 -15.113,-17.147c0,0 9.438,2.966 12.95,8.956c3.51,5.991 2.163,8.191 2.163,8.191Z" style="fill:#fffffd;fill-rule:nonzero;"/><path d="M193.629,296.662c0,0 -7.406,-0.241 -10.244,0.856c-2.834,1.097 -6.515,5.288 -6.515,5.288c0,0 12.022,1.49 14.878,-1.103c3.153,-2.869 1.881,-5.041 1.881,-5.041Z" style="fill:#fffffd;fill-rule:nonzero;"/><path d="M184.798,294.171c0,0 -7.753,-1.362 -11.078,0.028c-3.322,1.391 -8.275,5.066 -8.275,5.066c0,0 12.228,2.241 15.156,-0.856c2.928,-3.094 4.197,-4.238 4.197,-4.238Z" style="fill:#fffffd;fill-rule:nonzero;"/><path d="M176.438,291.818c0,0 -7.662,-2.118 -10.281,-1.575c-2.619,0.547 -8.612,4.394 -8.612,4.394c0,0 9.322,3.353 13.222,0.363c2.912,-2.232 5.671,-3.182 5.671,-3.182Z" style="fill:#fffffd;fill-rule:nonzero;"/><path d="M169.617,287.806c0,0 -9.379,-3.397 -13.841,-2.522c-4.459,0.872 -9.194,2.181 -9.194,2.181c0,0 8.272,4.575 13.641,4c5.369,-0.572 9.394,-3.659 9.394,-3.659Z" style="fill:#fffffd;fill-rule:nonzero;"/><path d="M161.001,283.596c0,0 -4.956,-3.406 -9.013,-4.037c-6.831,-1.063 -13.375,2.259 -13.375,2.259c0,0 5.235,4.291 10.96,3.866c5.725,-0.428 11.428,-2.088 11.428,-2.088Z" style="fill:#f8f5ed;fill-rule:nonzero;"/><path d="M150.91,277.193c0,0 -6.153,-5.09 -10.953,-5.431c-5.909,-0.419 -8.74,1.197 -8.74,1.197c0,0 8.071,7.231 12.971,6.497c4.904,-0.738 6.722,-2.263 6.722,-2.263Z" style="fill:#f8f5ed;fill-rule:nonzero;"/><path d="M271.101,254.071c0,0 -23.788,38.257 -65.906,43.053c0,0 -0.816,-0.371 -0.082,-1.153c0,0 33.116,-1.665 65.988,-41.9Z" style="fill:#f8f5ed;fill-rule:nonzero;"/><path d="M206.785,297.231c0,0 7.797,-2.175 9.453,-8.632c1.651,-6.453 1.375,-8.096 1.375,-8.096c0,0 -10.39,3.406 -11.415,8.762c-1.022,5.356 0.587,7.966 0.587,7.966Z" style="fill:#fffffd;fill-rule:nonzero;"/><path d="M217.648,294.293c0,0 4.484,-1.159 6.465,-6.665c1.375,-3.822 1.716,-10.916 1.716,-10.916c0,0 -8.131,5.65 -8.728,10.397c-0.597,4.744 0.547,7.184 0.547,7.184Z" style="fill:#fffffd;fill-rule:nonzero;"/><path d="M226.529,290.703c0,0 6.184,-3.169 6.981,-7.044c1.513,-7.388 -1.543,-9.222 -1.543,-9.222c0,0 -4.991,4.387 -5.95,9.322c-0.963,4.931 0.512,6.944 0.512,6.944Z" style="fill:#fffffd;fill-rule:nonzero;"/><path d="M235.848,285.865c0,0 5.328,-4.606 5.709,-7.55c0.688,-5.316 0.013,-10.031 0.013,-10.031c0,0 -5.863,3.956 -6.869,9.056c-0.978,4.938 1.147,8.525 1.147,8.525Z" style="fill:#fffffd;fill-rule:nonzero;"/><path d="M243.554,281.215c0,0 5.941,-2.987 6.469,-10.003c0.278,-3.725 -1.759,-8.484 -1.759,-8.484c0,0 -5.704,7.406 -5.791,11.309c-0.091,3.9 1.081,7.178 1.081,7.178Z" style="fill:#fffffd;fill-rule:nonzero;"/><path d="M252.251,274.39c0,0 3.916,-5.425 3.947,-10.134c0.034,-4.707 -2.406,-7.494 -2.406,-7.494c0,0 -3.419,4.653 -3.575,10.181c-0.163,5.528 2.034,7.447 2.034,7.447Z" style="fill:#fffffd;fill-rule:nonzero;"/><path d="M255.889,271.146c0,0 15.396,-0.859 15.206,-17.075c0,0 -9.45,2.922 -12.997,8.897c-3.544,5.972 -2.209,8.178 -2.209,8.178Z" style="fill:#fffffd;fill-rule:nonzero;"/><path d="M206.27,296.509c0,0 7.406,-0.206 10.24,0.906c2.832,1.109 6.488,5.319 6.488,5.319c0,0 -12.031,1.431 -14.872,-1.178c-3.138,-2.885 -1.856,-5.047 -1.856,-5.047Z" style="fill:#fffffd;fill-rule:nonzero;"/><path d="M215.114,294.059c0,0 7.765,-1.322 11.078,0.084c3.315,1.403 8.246,5.107 8.246,5.107c0,0 -12.237,2.181 -15.15,-0.932c-2.909,-3.109 -4.174,-4.259 -4.174,-4.259Z" style="fill:#fffffd;fill-rule:nonzero;"/><path d="M223.485,291.746c0,0 7.675,-2.081 10.291,-1.525c2.616,0.56 8.588,4.438 8.588,4.438c0,0 -9.341,3.306 -13.222,0.297c-2.897,-2.244 -5.657,-3.21 -5.657,-3.21Z" style="fill:#fffffd;fill-rule:nonzero;"/><path d="M230.329,287.768c0,0 9.397,-3.353 13.853,-2.456c4.456,0.894 9.188,2.225 9.188,2.225c0,0 -8.303,4.537 -13.666,3.934c-5.365,-0.597 -9.375,-3.703 -9.375,-3.703Z" style="fill:#fffffd;fill-rule:nonzero;"/><path d="M238.963,283.599c0,0 4.982,-3.381 9.041,-3.993c6.835,-1.032 13.363,2.325 13.363,2.325c0,0 -5.26,4.268 -10.985,3.809c-5.722,-0.453 -11.419,-2.141 -11.419,-2.141Z" style="fill:#f8f5ed;fill-rule:nonzero;"/><path d="M249.088,277.246c0,0 6.185,-5.062 10.988,-5.378c5.912,-0.39 8.737,1.241 8.737,1.241c0,0 -8.115,7.187 -13.012,6.431c-4.9,-0.759 -6.713,-2.294 -6.713,-2.294Z" style="fill:#f8f5ed;fill-rule:nonzero;"/><path d="M85.307,179.984c0,3.059 -2.478,5.534 -5.531,5.534c-3.056,0 -5.531,-2.475 -5.531,-5.534c0,-3.053 2.475,-5.528 5.531,-5.528c3.053,0 5.531,2.475 5.531,5.528Z" style="fill:#f8f5ed;fill-rule:nonzero;"/><path d="M85.307,221.284c0,3.056 -2.478,5.534 -5.531,5.534c-3.056,0 -5.531,-2.478 -5.531,-5.534c0,-3.053 2.475,-5.528 5.531,-5.528c3.053,0 5.531,2.475 5.531,5.528Z" style="fill:#f8f5ed;fill-rule:nonzero;"/><path d="M325.885,179.984c0,3.059 -2.475,5.534 -5.531,5.534c-3.056,0 -5.531,-2.475 -5.531,-5.534c0,-3.053 2.475,-5.528 5.531,-5.528c3.056,0 5.531,2.475 5.531,5.528Z" style="fill:#f8f5ed;fill-rule:nonzero;"/><path d="M325.885,221.284c0,3.056 -2.475,5.534 -5.531,5.534c-3.056,0 -5.531,-2.478 -5.531,-5.534c0,-3.053 2.475,-5.528 5.531,-5.528c3.056,0 5.531,2.475 5.531,5.528Z" style="fill:#f8f5ed;fill-rule:nonzero;"/><path d="M114.626,94.384c4.675,-22.038 1.591,-68.134 -26.806,-78.522c-9.619,-3.519 -24.125,1.687 -24.144,12.275c-0.006,4.353 8.644,10.613 9.566,4.284c0.921,-6.356 -7.622,-1.381 -4.607,-8.797c3.657,-8.996 18.038,-6.95 23.55,-3.284c8.619,5.725 13.403,12.456 16.157,19.588c3.893,10.093 6.159,19.297 6.159,28.837c0,8.247 -0.194,14.063 -1.888,22.659c0,0 -0.628,1.185 0.382,2.294c0.75,0.828 1.631,0.666 1.631,0.666Z" style="fill:#41362a;fill-rule:nonzero;"/><path d="M89.36,142.128c2.472,-14.047 -24.459,-23.247 -34.503,-24.2c-17.378,-1.647 -36.459,2.072 -47.606,16.371c-7.463,9.576 -10.841,19.551 -1.872,26.466c10.669,8.231 17.297,-5.497 8.334,-4.315c-2.309,0.306 -1.243,3.393 -1.246,3.89c-4.875,0.853 -9.138,-3.506 -10.01,-7.778c-1.134,-5.584 2.76,-12.231 6.066,-16.188c3.953,-4.721 8.722,-9.228 23.006,-12.684c11.316,-2.74 19.872,-2.2 31.6,1.822c10.694,3.669 11.209,4.931 18.238,14.366c1.596,2.14 0.753,3.456 4.431,3.934l3.562,-1.684Z" style="fill:#41362a;fill-rule:nonzero;"/><path d="M93.463,50.384c-5.078,-3.275 -12.775,-2.116 -18.471,-4.766c-6.779,-3.153 -9.944,-7.637 -18.369,-5.269c-7.031,1.975 -9.735,7.291 -15.103,11.375c-6.56,4.982 -10.938,5.247 -11.657,14.213c-0.081,1.041 -0.034,2.056 0.063,3.059c-4.428,7.994 -4.872,16.81 -2.219,22.928c1.06,1.86 1.931,3.625 3.075,4.985c1.269,1.291 2.463,2.409 3.547,3.384c2.572,1.475 4.569,2.722 6.384,3.172c3.625,0.922 5.322,1.153 5.322,1.153c0,0 -1.368,-1.253 -3.987,-3.653c-2.147,-2.562 -5.635,-6.469 -5.456,-11.825c0.062,-2.575 0.812,-5.466 2.356,-8.287c2.559,-2.222 6.262,-3.366 11.581,-3.344c7.81,0.031 19.316,-2.516 24.963,4.375c5.696,6.95 0.45,17.078 5.765,24.087c4.988,6.572 11.975,8.994 13.875,17.016c0.013,0.225 0.025,0.497 0.035,0.709c0.081,3.425 0.253,5.232 0.253,5.232c0,0 0.944,-1.485 2.575,-4.6c0.05,-0.107 0.118,-0.257 0.168,-0.366c10.969,-16.578 11.969,-62.828 -4.7,-73.578Z" style="fill:#41362a;fill-rule:nonzero;"/><path d="M168.507,66.343c0,0 1.038,-1.247 3.513,-3.062c2.437,-1.847 6.353,-4.085 11.143,-6.982c4.657,-2.84 7.613,-5.428 9.107,-7.778c1.462,-2.34 1.74,-4.078 1.843,-4.043c-0.137,-0.01 0.863,1.431 0.394,4.693c-0.478,3.247 -3.506,7.747 -8.85,10.941c-5.331,3.209 -9.731,4.381 -12.634,5.206c-2.925,0.772 -4.516,1.025 -4.516,1.025Z" style="fill:#41362a;fill-rule:nonzero;"/><path d="M185.676,17.449c-3.056,-6.518 -8.741,-11.265 -15.078,-14.278c-6.347,-3.003 -13.891,-3.99 -20.285,-2.456c-6.365,1.497 -11.028,4.906 -13.606,8.766c-2.575,3.831 -2.878,7.887 -1.99,11.2c0.875,3.322 3.325,6.075 6.356,7.159c3.006,1.188 5.75,0.688 7.581,0.281c0.919,-0.293 1.719,-0.522 2.372,-0.768c0.609,-0.31 1.122,-0.566 1.531,-0.772c0.797,-0.41 1.197,-0.619 1.197,-0.619c0,0 -0.481,0.131 -1.422,0.391c-0.462,0.131 -1.04,0.29 -1.725,0.484c-0.709,0.097 -1.531,0.209 -2.462,0.337c-1.828,0.041 -4.222,-0.028 -6.163,-1.321c-1.931,-1.238 -3.209,-3.519 -3.35,-6.21c-0.203,-2.684 0.891,-5.787 3.253,-8.39c0.157,-0.182 0.388,-0.341 0.56,-0.516c6.212,-2.706 13.393,-2.644 17.625,2.537c4.668,5.719 12.222,9.957 9.997,17.622c-0.916,3.141 -4.154,5.919 -4.704,9.054c-0.643,3.693 2.882,6.399 2.372,10c-1.193,8.468 -15.034,12.496 -18.887,19.528c0,0 -2.163,2.381 -3.738,4.015c-1.24,1.2 -1.878,2.297 -2.418,2.925c-0.494,0.66 -0.744,0.991 -0.744,0.991c0,0 0.344,-0.275 1.015,-0.813c0.707,-0.518 1.572,-1.412 3.013,-2.353c2.853,-1.959 7.525,-4.269 14.053,-7.315c3.247,-1.528 6.938,-3.391 10.741,-6.013c1.778,-1.369 3.712,-2.947 5.318,-4.691c0.819,-0.881 1.65,-1.778 2.507,-2.696c0.765,-0.969 1.453,-2.013 2.2,-3.057c2.859,-4.218 5.2,-9.137 6.278,-14.712c1.09,-5.538 1.369,-11.781 -1.397,-18.31Z" style="fill:#41362a;fill-rule:nonzero;"/><path d="M153.685,40.324c-0.462,-2.718 -1.965,-5.421 -4.025,-7.165c-2.043,-1.775 -4.362,-2.666 -6.465,-3.125c-8.519,-1.491 -14.675,1.709 -18.513,4.962c-3.89,3.453 -4.847,7.538 -4.694,9.844c0.147,2.388 0.804,3.391 0.713,3.403c0.075,0.016 0.025,-1.265 0.744,-3.35c0.759,-2.056 2.643,-4.737 6.287,-6.456c0.244,-0.122 0.56,-0.2 0.819,-0.313c0.694,1.404 3.397,1.857 5.606,3.016c8.213,4.303 1.525,9.422 -0.547,15.759c-2.15,6.582 -8.753,9.75 -12.143,15.391c-2.385,3.969 -0.569,9.659 0.628,14.885c-0.2,1.49 -0.357,2.89 -0.482,4.074c-0.175,1.729 0.238,3.222 0.313,4.36c0.306,2.297 0.531,3.387 0.531,3.387c0,0 0.313,-1.125 0.916,-3.275c0.347,-1.059 0.45,-2.403 1.112,-3.893c0.647,-1.475 1.394,-3.178 2.238,-5.107c2.178,-3.693 4.894,-8.072 9.125,-13.034c4.019,-5.144 9.294,-10.525 14.459,-18.766c2.353,-4.397 4.194,-9.075 3.378,-14.597Z" style="fill:#41362a;fill-rule:nonzero;"/><path d="M110.604,83.737c-0.047,0.45 1.131,0.009 1.625,-0.047c0.825,-4.737 0.722,-10.269 0.309,-15.131c-0.418,-4.96 -1.846,-9.181 -3.528,-14.1c-1.6,-4.684 -4.781,-9.991 -10.815,-14.472c-3.875,-2.881 -14.235,-4.456 -16.525,1.881c-0.622,1.725 0.893,4.375 3.553,3.272c1.637,-0.678 1.412,-3.009 2.512,-4.103c3.582,-3.534 11.85,2.1 14.072,4.547c7.803,8.572 9.425,22.034 9.425,32.606c0,1.772 -0.5,4.281 -0.628,5.547Z" style="fill:#41362a;fill-rule:nonzero;"/><path d="M92.635,42.146c1.394,0.907 3.316,2.403 3.897,3.878c0.544,1.382 0.147,3.019 0.403,4.444c0.575,3.169 3.957,3.322 6.235,5.319c2.497,2.191 2.315,4.95 2.028,7.844c-0.281,2.831 -0.225,4.425 1.387,6.906c0.825,1.278 1.569,2.553 2.291,3.881c0.616,1.132 0.634,2.41 1.225,3.441c0,0 0.253,-14.344 -2.638,-20.147c-2.89,-5.806 -6.409,-14.234 -14.828,-15.566Z" style="fill:#41362a;fill-rule:nonzero;"/><path d="M80.088,18.634c2.447,4.084 8.741,6.759 13.175,8.759c5.394,2.444 4.716,6.669 7.604,10.606c2.209,3.013 4.553,5.554 6.534,8.697c1.959,3.113 3.703,6.75 4.475,10.2c0.244,1.1 0.203,2.297 0.737,3.325c0,0 0,-11.531 -8.543,-26.503c-6.163,-10.794 -16.694,-15.084 -23.982,-15.084Z" style="fill:#41362a;fill-rule:nonzero;"/><path d="M72.076,137.081c-0.075,0.228 -2.444,-4.45 -10.366,-4.641c-1.825,-0.091 -4.262,-0.1 -6.281,0.41c-2.091,0.24 -3.772,1.475 -5.206,2.984c-1.456,1.54 -2.397,3.994 -2.844,6.834c-0.337,1.391 -0.244,2.972 -0.344,4.582c0.038,1.778 0.116,3.793 0.091,5.909c-0.066,4.125 -0.391,8.334 -2.106,12.434c-1.522,4.085 -5.553,7.913 -9.678,8.797c-1.904,0.538 -4.341,0.694 -6.244,0.175c-0.991,-0.2 -1.903,-0.497 -2.731,-0.962c-0.863,-0.379 -1.632,-0.869 -2.3,-1.482c-2.825,-2.218 -4.041,-5.8 -3.544,-8.528c0.425,-2.675 1.969,-4.75 3.578,-5.794c1.606,-1.056 3.375,-1.64 4.778,-1.081c1.313,0.472 1.844,1.347 2.019,1.881c0.219,0.513 0.334,0.779 0.334,0.779c0,0 -0.212,-0.175 -0.628,-0.51c-0.331,-0.384 -1.047,-0.753 -1.847,-0.756c-1.493,0.037 -3.956,2.459 -3.544,5.431c0.119,1.435 0.879,2.6 2.325,3.41c1.491,0.797 3.332,1.009 5.022,0.281c1.963,-0.763 3.178,-2.069 4.079,-4.51c0.874,-2.459 1.184,-5.837 1.206,-9.659c0.003,-2.009 0.009,-3.959 0.012,-5.847c0.172,-2.181 0.231,-4.3 0.831,-6.359c0.994,-4.06 2.913,-7.969 6.141,-10.566c3.134,-2.537 6.997,-3.872 10.184,-3.612c3.15,0.003 5.491,0.622 7.744,1.353c4.416,1.444 7.213,3.997 8.228,5.997c1.078,1.962 1.003,3.097 1.091,3.05Z" style="fill:#41362a;fill-rule:nonzero;"/><path d="M84.229,121.074c0,0 -0.731,0.022 -2.05,0.06c-1.316,-0.147 -3.572,-0.344 -5.922,-2.106c-2.337,-1.713 -4.415,-4.825 -5.669,-8.607c-1.406,-3.75 -1.959,-8.303 -3.518,-12.64c-1.469,-4.316 -3.757,-7.741 -6.322,-9.719c-2.588,-2.012 -5.413,-2.125 -7.506,-1.141c-2.122,0.988 -3.375,2.613 -4.204,3.613c-0.765,1.062 -1.193,1.659 -1.193,1.659c0,0 0.184,-0.678 0.509,-1.903c0.456,-1.209 1.141,-3.212 3.422,-5.109c2.081,-2.019 6.953,-2.891 10.872,-0.453c3.959,2.228 7.047,6.475 8.809,11.572c1.822,5.218 1.997,9.609 2.913,13.128c0.759,3.565 1.981,6.203 3.493,7.975c3.263,3.431 6.538,3.481 6.366,3.671Z" style="fill:#41362a;fill-rule:nonzero;"/><path d="M91.51,14.228c0,0 2.147,0.662 6.303,2.434c3.804,2.134 9.713,5.775 14.441,12.722c2.422,3.337 3.656,6.794 4.403,9.706c0.76,2.938 0.991,5.434 1.21,7.441c0.365,4.012 0.453,6.15 0.453,6.15c0,0 -0.907,-1.866 -2.116,-5.688c-1.347,-3.775 -2.444,-9.628 -6.9,-16.015c-9.256,-12.888 -18.181,-16.388 -17.794,-16.75Z" style="fill:#41362a;fill-rule:nonzero;"/><path d="M132.551,47.543c0,0 0.187,1.213 -0.103,3.76c-0.538,2.372 -1.972,6 -4.856,9.59c-2.75,3.547 -4.947,5.903 -6.388,7.728c-1.275,1.825 -2.131,2.982 -2.131,2.982c0,0 -0.331,-1.194 -0.066,-3.747c0.441,-2.456 1.994,-6.007 4.85,-9.647c2.897,-3.628 4.919,-6.066 6.472,-7.841c1.253,-1.828 2.222,-2.825 2.222,-2.825Z" style="fill:#41362a;fill-rule:nonzero;"/><path d="M147.076,16.759c0,0 0.45,-0.153 1.234,-0.419c0.847,-0.347 2.235,-0.491 4.132,-0.387c3.662,0.421 9.265,2.475 12.743,8.075c1.488,2.818 1.363,5.643 0.694,7.809c-0.644,2.209 -1.875,3.772 -2.806,5.006c-2.035,2.381 -3.403,3.425 -3.403,3.425c0,0 0.459,-1.412 1.497,-4.019c0.921,-2.578 2.509,-6.49 0.281,-10.928c-2.625,-4.253 -6.781,-6.778 -9.544,-7.787c-2.916,-0.966 -4.834,-0.644 -4.828,-0.775Z" style="fill:#41362a;fill-rule:nonzero;"/><path d="M37.951,127.2c0,0 -0.503,0.128 -1.366,0.343c-0.884,0.169 -2.178,0.607 -3.803,1.188c-3.234,1.25 -7.937,3.381 -13.225,7.297c-5.115,3.862 -8,7.781 -9.072,10.906c-1.04,3.128 -0.69,5.197 -0.828,5.187c0.175,-0.018 -1.365,-1.462 -1.503,-5.365c-0.097,-3.857 2.472,-9.766 8.556,-14.3c6.088,-4.503 11.903,-5.753 15.647,-5.947c1.9,-0.053 3.316,0.075 4.238,0.331c0.856,0.228 1.356,0.36 1.356,0.36Z" style="fill:#41362a;fill-rule:nonzero;"/><path d="M57.72,137.693c0.075,0.107 -1.425,0.241 -2.788,1.85c-1.372,1.594 -2.078,4.813 -2.365,9.247c-0.272,4.328 -0.347,7.813 -0.588,10.191c-0.206,2.384 -0.544,3.647 -0.544,3.647c0,0 -0.356,-1.163 -0.837,-3.466c-0.447,-2.303 -1.103,-5.788 -0.813,-10.559c0.285,-4.716 1.872,-8.575 4.235,-10.085c2.362,-1.428 3.765,-0.656 3.7,-0.825Z" style="fill:#41362a;fill-rule:nonzero;"/><path d="M72.248,145.437c0,1.862 -1.55,3.372 -3.463,3.372c-1.909,0 -3.459,-1.51 -3.459,-3.372c0,-1.866 1.55,-3.372 3.459,-3.372c1.913,0 3.463,1.506 3.463,3.372Z" style="fill:#41362a;fill-rule:nonzero;"/><path d="M84.995,30.084c0,1.859 -1.55,3.372 -3.463,3.372c-1.912,0 -3.462,-1.513 -3.462,-3.372c0,-1.863 1.55,-3.372 3.462,-3.372c1.913,0 3.463,1.509 3.463,3.372Z" style="fill:#41362a;fill-rule:nonzero;"/><path d="M150.538,21.453c0,1.865 -1.55,3.371 -3.462,3.371c-1.913,0 -3.466,-1.506 -3.466,-3.371c0,-1.863 1.553,-3.372 3.466,-3.372c1.912,0 3.462,1.509 3.462,3.372Z" style="fill:#41362a;fill-rule:nonzero;"/><path d="M164.523,50.94c0,1.863 -1.55,3.372 -3.466,3.372c-1.912,0 -3.462,-1.509 -3.462,-3.372c0,-1.862 1.55,-3.375 3.462,-3.375c1.916,0 3.466,1.513 3.466,3.375Z" style="fill:#41362a;fill-rule:nonzero;"/><path d="M37.048,71.628c0,0 0.025,-1.266 0.462,-3.744c0.616,-2.422 2.457,-6.056 6.735,-9.013c4.2,-3 10.484,-5.15 18.134,-5.815c3.825,-0.3 8.009,-0.307 12.447,0.418c2.209,0.416 4.484,0.95 6.744,1.885c2.281,0.956 4.322,2.356 6.375,3.872c3.965,3.065 6.615,7.243 7.884,11.4c1.316,4.168 1.569,8.225 1.584,11.922c-0.118,7.409 -1.118,13.55 -1.5,18.534c-0.543,4.994 -0.234,8.778 -0.278,11.381c0.025,1.272 0.178,2.244 0.403,2.85c0.213,0.613 0.322,0.931 0.322,0.931c0.078,-0.012 -0.765,-1.075 -1.003,-3.584c-0.115,-2.45 -0.669,-6.197 -0.397,-11.153c0.119,-4.953 0.897,-11.112 0.882,-18.416c-0.063,-3.637 -0.322,-7.603 -1.575,-11.6c-1.247,-3.981 -3.704,-7.897 -7.507,-10.875c-3.815,-3.031 -8.003,-4.812 -12.325,-5.462c-4.262,-0.735 -8.334,-0.794 -12.053,-0.569c-7.45,0.485 -13.572,2.388 -17.7,5.085c-4.203,2.653 -6.128,6.009 -6.906,8.325c-0.575,2.368 -0.728,3.628 -0.728,3.628Z" style="fill:#fff;fill-rule:nonzero;"/><path d="M170.282,7.874c0,0 0.538,0.441 1.535,1.26c1.065,0.809 2.409,2.212 4.006,4.172c3.056,3.934 6.922,10.478 7.887,19.768c0.832,9.079 -2.7,16.154 -6.681,19.691c-2.056,1.725 -3.806,2.878 -5.178,3.416c-1.272,0.593 -1.963,0.915 -1.963,0.915c0,0 0.607,-0.362 1.735,-1.04c1.237,-0.6 2.762,-1.822 4.619,-3.528c3.487,-3.55 6.656,-10.263 5.85,-19.363c-0.95,-9.069 -4.35,-15.55 -6.997,-19.572c-1.397,-1.99 -2.553,-3.465 -3.488,-4.34c-0.859,-0.894 -1.325,-1.379 -1.325,-1.379Z" style="fill:#fff;fill-rule:nonzero;"/><path d="M125.62,83.684c0,0 0.418,-2.584 3.19,-6.8c2.625,-4.269 7.322,-10.094 12.863,-18.066c5.287,-7.628 8.644,-14.919 6.228,-19.356c-1.075,-2.144 -2.841,-3.169 -3.894,-3.875c-1.128,-0.575 -1.762,-0.9 -1.762,-0.9c0,0 0.647,0.222 1.809,0.616c1.109,0.543 3.05,1.284 4.538,3.503c1.568,2.178 1.825,5.759 0.665,9.372c-1.097,3.659 -3.24,7.534 -6.037,11.634c-5.678,8.169 -10.71,13.663 -13.672,17.622c-3.091,3.878 -3.928,6.25 -3.928,6.25Z" style="fill:#fff;fill-rule:nonzero;"/><path d="M33.12,171.918c0,0 0.587,-0.331 1.637,-0.931c1.153,-0.513 2.647,-1.663 4.2,-3.506c1.472,-1.941 2.585,-4.766 3.169,-8.313c0.472,-3.55 0.834,-7.787 1.119,-12.544c0.203,-4.621 0.881,-9.084 3.331,-12.037c2.294,-3.137 5.747,-3.972 8.162,-4.472c2.532,-0.506 4.513,-0.225 5.797,-0.072c1.219,0.341 1.903,0.535 1.903,0.535c0,0 -0.656,-0.138 -1.834,-0.379c-1.237,-0.087 -3.122,-0.24 -5.537,0.319c-2.291,0.594 -5.607,1.388 -7.694,4.313c-2.319,2.794 -3.006,7.065 -3.2,11.84c-0.291,4.847 -0.71,9.044 -1.281,12.682c-0.682,3.622 -1.991,6.518 -3.597,8.45c-1.713,1.828 -3.294,2.878 -4.485,3.318c-1.084,0.513 -1.69,0.797 -1.69,0.797Z" style="fill:#fff;fill-rule:nonzero;"/><path d="M285.504,94.384c-4.675,-22.038 -1.591,-68.134 26.806,-78.522c9.619,-3.519 24.125,1.687 24.141,12.275c0.006,4.353 -8.641,10.613 -9.563,4.284c-0.924,-6.356 7.619,-1.381 4.607,-8.797c-3.657,-8.996 -18.038,-6.95 -23.556,-3.284c-8.613,5.725 -13.401,12.456 -16.154,19.588c-3.897,10.093 -6.156,19.297 -6.156,28.837c0,8.247 0.194,14.063 1.884,22.659c0,0 0.629,1.185 -0.378,2.294c-0.75,0.828 -1.631,0.666 -1.631,0.666Z" style="fill:#41362a;fill-rule:nonzero;"/><path d="M310.77,142.128c-2.472,-14.047 24.459,-23.247 34.5,-24.2c17.381,-1.647 36.462,2.072 47.609,16.371c7.463,9.576 10.841,19.551 1.872,26.466c-10.669,8.231 -17.297,-5.497 -8.334,-4.315c2.309,0.306 1.243,3.393 1.243,3.89c4.878,0.853 9.138,-3.506 10.007,-7.778c1.14,-5.584 -2.757,-12.231 -6.06,-16.188c-3.953,-4.721 -8.722,-9.228 -23.009,-12.684c-11.316,-2.74 -19.869,-2.2 -31.597,1.822c-10.697,3.669 -11.216,4.931 -18.241,14.366c-1.593,2.14 -0.753,3.456 -4.434,3.934l-3.556,-1.684Z" style="fill:#41362a;fill-rule:nonzero;"/><path d="M306.663,50.384c5.082,-3.275 12.779,-2.116 18.472,-4.766c6.779,-3.153 9.944,-7.637 18.372,-5.269c7.028,1.975 9.731,7.291 15.1,11.375c6.56,4.982 10.935,5.247 11.659,14.213c0.082,1.041 0.032,2.056 -0.062,3.059c4.428,7.994 4.869,16.81 2.219,22.928c-1.063,1.86 -1.931,3.625 -3.075,4.985c-1.269,1.291 -2.463,2.409 -3.55,3.384c-2.569,1.475 -4.569,2.722 -6.381,3.172c-3.625,0.922 -5.322,1.153 -5.322,1.153c0,0 1.365,-1.253 3.984,-3.653c2.147,-2.562 5.638,-6.469 5.456,-11.825c-0.059,-2.575 -0.809,-5.466 -2.353,-8.287c-2.559,-2.222 -6.262,-3.366 -11.587,-3.344c-7.807,0.031 -19.31,-2.516 -24.96,4.375c-5.693,6.95 -0.447,17.078 -5.765,24.087c-4.985,6.572 -11.975,8.994 -13.875,17.016c-0.01,0.225 -0.022,0.497 -0.035,0.709c-0.081,3.425 -0.25,5.232 -0.25,5.232c0,0 -0.946,-1.485 -2.575,-4.6c-0.053,-0.107 -0.118,-0.257 -0.175,-0.366c-10.965,-16.578 -11.962,-62.828 4.703,-73.578Z" style="fill:#41362a;fill-rule:nonzero;"/><path d="M231.623,66.343c0,0 -1.041,-1.247 -3.516,-3.062c-2.434,-1.847 -6.353,-4.085 -11.14,-6.982c-4.657,-2.84 -7.616,-5.428 -9.11,-7.778c-1.459,-2.34 -1.74,-4.078 -1.84,-4.043c0.134,-0.01 -0.863,1.431 -0.397,4.693c0.478,3.247 3.503,7.747 8.853,10.941c5.328,3.209 9.728,4.381 12.634,5.206c2.922,0.772 4.516,1.025 4.516,1.025Z" style="fill:#41362a;fill-rule:nonzero;"/><path d="M214.451,17.449c3.059,-6.518 8.744,-11.265 15.081,-14.278c6.347,-3.003 13.891,-3.99 20.281,-2.456c6.369,1.497 11.032,4.906 13.604,8.766c2.581,3.831 2.884,7.887 1.996,11.2c-0.878,3.322 -3.324,6.075 -6.356,7.159c-3.006,1.188 -5.75,0.688 -7.584,0.281c-0.916,-0.293 -1.719,-0.522 -2.369,-0.768c-0.612,-0.31 -1.122,-0.566 -1.531,-0.772c-0.797,-0.41 -1.197,-0.619 -1.197,-0.619c0,0 0.481,0.131 1.419,0.391c0.462,0.131 1.04,0.29 1.725,0.484c0.712,0.097 1.528,0.209 2.465,0.337c1.829,0.041 4.222,-0.028 6.16,-1.321c1.934,-1.238 3.212,-3.519 3.353,-6.21c0.2,-2.684 -0.891,-5.787 -3.253,-8.39c-0.157,-0.182 -0.388,-0.341 -0.563,-0.516c-6.212,-2.706 -13.39,-2.644 -17.622,2.537c-4.668,5.719 -12.225,9.957 -10,17.622c0.913,3.141 4.157,5.919 4.703,9.054c0.644,3.693 -2.878,6.399 -2.368,10c1.19,8.468 15.034,12.496 18.887,19.528c0,0 2.16,2.381 3.738,4.015c1.237,1.2 1.872,2.297 2.415,2.925c0.491,0.66 0.744,0.991 0.744,0.991c0,0 -0.344,-0.275 -1.019,-0.813c-0.703,-0.518 -1.568,-1.412 -3.009,-2.353c-2.853,-1.959 -7.528,-4.269 -14.056,-7.315c-3.247,-1.528 -6.935,-3.391 -10.735,-6.013c-1.781,-1.369 -3.715,-2.947 -5.318,-4.691c-0.819,-0.881 -1.657,-1.778 -2.507,-2.696c-0.765,-0.969 -1.453,-2.013 -2.203,-3.057c-2.859,-4.218 -5.197,-9.137 -6.275,-14.712c-1.094,-5.538 -1.369,-11.781 1.394,-18.31Z" style="fill:#41362a;fill-rule:nonzero;"/><path d="M246.445,40.324c0.462,-2.718 1.965,-5.421 4.025,-7.165c2.043,-1.775 4.359,-2.666 6.462,-3.125c8.519,-1.491 14.672,1.709 18.513,4.962c3.893,3.453 4.85,7.538 4.694,9.844c-0.144,2.388 -0.801,3.391 -0.716,3.403c-0.069,0.016 -0.019,-1.265 -0.738,-3.35c-0.762,-2.056 -2.65,-4.737 -6.293,-6.456c-0.238,-0.122 -0.553,-0.2 -0.813,-0.313c-0.694,1.404 -3.397,1.857 -5.609,3.016c-8.216,4.303 -1.525,9.422 0.55,15.759c2.15,6.582 8.75,9.75 12.14,15.391c2.388,3.969 0.572,9.659 -0.625,14.885c0.2,1.49 0.353,2.89 0.478,4.074c0.179,1.729 -0.234,3.222 -0.309,4.36c-0.306,2.297 -0.531,3.387 -0.531,3.387c0,0 -0.316,-1.125 -0.916,-3.275c-0.347,-1.059 -0.453,-2.403 -1.115,-3.893c-0.647,-1.475 -1.391,-3.178 -2.235,-5.107c-2.181,-3.693 -4.894,-8.072 -9.125,-13.034c-4.022,-5.144 -9.294,-10.525 -14.462,-18.766c-2.353,-4.397 -4.191,-9.075 -3.375,-14.597Z" style="fill:#41362a;fill-rule:nonzero;"/><path d="M289.523,83.737c0.044,0.45 -1.128,0.009 -1.625,-0.047c-0.822,-4.737 -0.719,-10.269 -0.31,-15.131c0.419,-4.96 1.847,-9.181 3.532,-14.1c1.597,-4.684 4.778,-9.991 10.815,-14.472c3.875,-2.881 14.232,-4.456 16.525,1.881c0.622,1.725 -0.897,4.375 -3.553,3.272c-1.64,-0.678 -1.412,-3.009 -2.515,-4.103c-3.579,-3.534 -11.847,2.1 -14.072,4.547c-7.8,8.572 -9.422,22.034 -9.422,32.606c0,1.772 0.5,4.281 0.625,5.547Z" style="fill:#41362a;fill-rule:nonzero;"/><path d="M307.495,42.146c-1.394,0.907 -3.322,2.403 -3.9,3.878c-0.541,1.382 -0.144,3.019 -0.4,4.444c-0.575,3.169 -3.956,3.322 -6.235,5.319c-2.497,2.191 -2.318,4.95 -2.031,7.844c0.284,2.831 0.225,4.425 -1.384,6.906c-0.831,1.278 -1.569,2.553 -2.291,3.881c-0.619,1.132 -0.637,2.41 -1.228,3.441c0,0 -0.25,-14.344 2.641,-20.147c2.89,-5.806 6.406,-14.234 14.828,-15.566Z" style="fill:#41362a;fill-rule:nonzero;"/><path d="M320.038,18.634c-2.446,4.084 -8.737,6.759 -13.171,8.759c-5.397,2.444 -4.716,6.669 -7.603,10.606c-2.21,3.013 -4.554,5.554 -6.538,8.697c-1.963,3.113 -3.7,6.75 -4.472,10.2c-0.25,1.1 -0.203,2.297 -0.741,3.325c0,0 0,-11.531 8.547,-26.503c6.156,-10.794 16.688,-15.084 23.978,-15.084Z" style="fill:#41362a;fill-rule:nonzero;"/><path d="M328.051,137.081c0.072,0.228 2.447,-4.45 10.362,-4.641c1.829,-0.091 4.266,-0.1 6.288,0.41c2.091,0.24 3.772,1.475 5.206,2.984c1.457,1.54 2.397,3.994 2.841,6.834c0.337,1.391 0.24,2.972 0.347,4.582c-0.038,1.778 -0.119,3.793 -0.094,5.909c0.066,4.125 0.391,8.334 2.109,12.434c1.519,4.085 5.55,7.913 9.678,8.797c1.904,0.538 4.338,0.694 6.244,0.175c0.985,-0.2 1.903,-0.497 2.731,-0.962c0.863,-0.379 1.629,-0.869 2.3,-1.482c2.822,-2.218 4.038,-5.8 3.541,-8.528c-0.425,-2.675 -1.966,-4.75 -3.578,-5.794c-1.603,-1.056 -3.375,-1.64 -4.775,-1.081c-1.316,0.472 -1.85,1.347 -2.019,1.881c-0.222,0.513 -0.337,0.779 -0.337,0.779c0,0 0.215,-0.175 0.628,-0.51c0.334,-0.384 1.047,-0.753 1.85,-0.756c1.494,0.037 3.956,2.459 3.544,5.431c-0.119,1.435 -0.879,2.6 -2.329,3.41c-1.49,0.797 -3.334,1.009 -5.025,0.281c-1.956,-0.763 -3.171,-2.069 -4.071,-4.51c-0.879,-2.459 -1.185,-5.837 -1.21,-9.659c-0.003,-2.009 -0.006,-3.959 -0.009,-5.847c-0.175,-2.181 -0.231,-4.3 -0.834,-6.359c-0.991,-4.06 -2.91,-7.969 -6.138,-10.566c-3.134,-2.537 -7,-3.872 -10.184,-3.612c-3.15,0.003 -5.491,0.622 -7.747,1.353c-4.416,1.444 -7.21,3.997 -8.228,5.997c-1.078,1.962 -1.004,3.097 -1.091,3.05Z" style="fill:#41362a;fill-rule:nonzero;"/><path d="M315.901,121.074c0,0 0.731,0.022 2.05,0.06c1.312,-0.147 3.569,-0.344 5.922,-2.106c2.337,-1.713 4.412,-4.825 5.669,-8.607c1.406,-3.75 1.956,-8.303 3.515,-12.64c1.472,-4.316 3.757,-7.741 6.325,-9.719c2.585,-2.012 5.41,-2.125 7.503,-1.141c2.125,0.988 3.372,2.613 4.207,3.613c0.762,1.062 1.19,1.659 1.19,1.659c0,0 -0.181,-0.678 -0.506,-1.903c-0.459,-1.209 -1.141,-3.212 -3.422,-5.109c-2.081,-2.019 -6.956,-2.891 -10.872,-0.453c-3.959,2.228 -7.047,6.475 -8.809,11.572c-1.822,5.218 -1.997,9.609 -2.913,13.128c-0.765,3.565 -1.981,6.203 -3.5,7.975c-3.259,3.431 -6.531,3.481 -6.359,3.671Z" style="fill:#41362a;fill-rule:nonzero;"/><path d="M308.62,14.228c0,0 -2.147,0.662 -6.303,2.434c-3.804,2.134 -9.713,5.775 -14.444,12.722c-2.419,3.337 -3.653,6.794 -4.403,9.706c-0.757,2.938 -0.991,5.434 -1.21,7.441c-0.368,4.012 -0.453,6.15 -0.453,6.15c0,0 0.91,-1.866 2.119,-5.688c1.344,-3.775 2.444,-9.628 6.9,-16.015c9.256,-12.888 18.181,-16.388 17.794,-16.75Z" style="fill:#41362a;fill-rule:nonzero;"/><path d="M267.576,47.543c0,0 -0.188,1.213 0.106,3.76c0.535,2.372 1.966,6 4.853,9.59c2.75,3.547 4.947,5.903 6.391,7.728c1.269,1.825 2.131,2.982 2.131,2.982c0,0 0.328,-1.194 0.063,-3.747c-0.438,-2.456 -1.994,-6.007 -4.85,-9.647c-2.897,-3.628 -4.919,-6.066 -6.475,-7.841c-1.247,-1.828 -2.219,-2.825 -2.219,-2.825Z" style="fill:#41362a;fill-rule:nonzero;"/><path d="M253.051,16.759c0,0 -0.456,-0.153 -1.238,-0.419c-0.846,-0.347 -2.228,-0.491 -4.125,-0.387c-3.662,0.421 -9.268,2.475 -12.743,8.075c-1.491,2.818 -1.369,5.643 -0.7,7.809c0.647,2.209 1.878,3.772 2.812,5.006c2.035,2.381 3.403,3.425 3.403,3.425c0,0 -0.462,-1.412 -1.497,-4.019c-0.921,-2.578 -2.512,-6.49 -0.287,-10.928c2.631,-4.253 6.788,-6.778 9.547,-7.787c2.915,-0.966 4.837,-0.644 4.828,-0.775Z" style="fill:#41362a;fill-rule:nonzero;"/><path d="M362.179,127.2c0,0 0.503,0.128 1.363,0.343c0.887,0.169 2.181,0.607 3.806,1.188c3.231,1.25 7.937,3.381 13.225,7.297c5.112,3.862 8,7.781 9.072,10.906c1.04,3.128 0.687,5.197 0.828,5.187c-0.178,-0.018 1.362,-1.462 1.5,-5.365c0.1,-3.857 -2.472,-9.766 -8.553,-14.3c-6.094,-4.503 -11.903,-5.753 -15.647,-5.947c-1.903,-0.053 -3.319,0.075 -4.241,0.331c-0.856,0.228 -1.353,0.36 -1.353,0.36Z" style="fill:#41362a;fill-rule:nonzero;"/><path d="M342.41,137.693c-0.078,0.107 1.422,0.241 2.785,1.85c1.375,1.594 2.078,4.813 2.369,9.247c0.271,4.328 0.343,7.813 0.587,10.191c0.206,2.384 0.541,3.647 0.541,3.647c0,0 0.359,-1.163 0.84,-3.466c0.447,-2.303 1.103,-5.788 0.81,-10.559c-0.282,-4.716 -1.872,-8.575 -4.232,-10.085c-2.365,-1.428 -3.768,-0.656 -3.7,-0.825Z" style="fill:#41362a;fill-rule:nonzero;"/><path d="M327.879,145.437c0,1.862 1.55,3.372 3.463,3.372c1.912,0 3.462,-1.51 3.462,-3.372c0,-1.866 -1.55,-3.372 -3.462,-3.372c-1.913,0 -3.463,1.506 -3.463,3.372Z" style="fill:#41362a;fill-rule:nonzero;"/><path d="M315.132,30.084c0,1.859 1.55,3.372 3.466,3.372c1.912,0 3.462,-1.513 3.462,-3.372c0,-1.863 -1.55,-3.372 -3.462,-3.372c-1.916,0 -3.466,1.509 -3.466,3.372Z" style="fill:#41362a;fill-rule:nonzero;"/><path d="M249.592,21.453c0,1.865 1.546,3.371 3.459,3.371c1.912,0 3.466,-1.506 3.466,-3.371c0,-1.863 -1.554,-3.372 -3.466,-3.372c-1.913,0 -3.459,1.509 -3.459,3.372Z" style="fill:#41362a;fill-rule:nonzero;"/><path d="M235.607,50.94c0,1.863 1.55,3.372 3.463,3.372c1.912,0 3.465,-1.509 3.465,-3.372c0,-1.862 -1.553,-3.375 -3.465,-3.375c-1.913,0 -3.463,1.513 -3.463,3.375Z" style="fill:#41362a;fill-rule:nonzero;"/><path d="M363.079,71.628c0,0 -0.022,-1.266 -0.463,-3.744c-0.612,-2.422 -2.456,-6.056 -6.734,-9.013c-4.2,-3 -10.481,-5.15 -18.134,-5.815c-3.822,-0.3 -8.01,-0.307 -12.444,0.418c-2.209,0.416 -4.487,0.95 -6.744,1.885c-2.284,0.956 -4.321,2.356 -6.375,3.872c-3.968,3.065 -6.615,7.243 -7.887,11.4c-1.316,4.168 -1.572,8.225 -1.581,11.922c0.118,7.409 1.115,13.55 1.5,18.534c0.54,4.994 0.234,8.778 0.278,11.381c-0.028,1.272 -0.178,2.244 -0.403,2.85c-0.213,0.613 -0.328,0.931 -0.328,0.931c-0.072,-0.012 0.771,-1.075 1.006,-3.584c0.115,-2.45 0.672,-6.197 0.4,-11.153c-0.122,-4.953 -0.897,-11.112 -0.885,-18.416c0.063,-3.637 0.325,-7.603 1.572,-11.6c1.253,-3.981 3.706,-7.897 7.51,-10.875c3.815,-3.031 8.006,-4.812 12.328,-5.462c4.259,-0.735 8.334,-0.794 12.05,-0.569c7.453,0.485 13.572,2.388 17.703,5.085c4.197,2.653 6.125,6.009 6.906,8.325c0.575,2.368 0.725,3.628 0.725,3.628Z" style="fill:#fff;fill-rule:nonzero;"/><path d="M229.848,7.874c0,0 -0.544,0.441 -1.538,1.26c-1.065,0.809 -2.409,2.212 -4.003,4.172c-3.059,3.934 -6.922,10.478 -7.89,19.768c-0.832,9.079 2.7,16.154 6.684,19.691c2.056,1.725 3.803,2.878 5.175,3.416c1.272,0.593 1.966,0.915 1.966,0.915c0,0 -0.613,-0.362 -1.738,-1.04c-1.234,-0.6 -2.759,-1.822 -4.616,-3.528c-3.487,-3.55 -6.656,-10.263 -5.85,-19.363c0.947,-9.069 4.347,-15.55 6.994,-19.572c1.391,-1.99 2.556,-3.465 3.485,-4.34c0.865,-0.894 1.331,-1.379 1.331,-1.379Z" style="fill:#fff;fill-rule:nonzero;"/><path d="M274.51,83.684c0,0 -0.425,-2.584 -3.19,-6.8c-2.625,-4.269 -7.325,-10.094 -12.866,-18.066c-5.284,-7.628 -8.641,-14.919 -6.234,-19.356c1.081,-2.144 2.847,-3.169 3.9,-3.875c1.131,-0.575 1.762,-0.9 1.762,-0.9c0,0 -0.647,0.222 -1.806,0.616c-1.113,0.543 -3.053,1.284 -4.541,3.503c-1.568,2.178 -1.822,5.759 -0.665,9.372c1.097,3.659 3.244,7.534 6.037,11.634c5.681,8.169 10.713,13.663 13.672,17.622c3.091,3.878 3.931,6.25 3.931,6.25Z" style="fill:#fff;fill-rule:nonzero;"/><path d="M367.01,171.918c0,0 -0.59,-0.331 -1.643,-0.931c-1.147,-0.513 -2.641,-1.663 -4.197,-3.506c-1.472,-1.941 -2.585,-4.766 -3.166,-8.313c-0.472,-3.55 -0.837,-7.787 -1.119,-12.544c-0.206,-4.621 -0.884,-9.084 -3.331,-12.037c-2.294,-3.137 -5.747,-3.972 -8.162,-4.472c-2.532,-0.506 -4.516,-0.225 -5.8,-0.072c-1.216,0.341 -1.9,0.535 -1.9,0.535c0,0 0.656,-0.138 1.834,-0.379c1.234,-0.087 3.122,-0.24 5.534,0.319c2.294,0.594 5.61,1.388 7.697,4.313c2.313,2.794 3.006,7.065 3.2,11.84c0.288,4.847 0.706,9.044 1.282,12.682c0.681,3.622 1.987,6.518 3.593,8.45c1.716,1.828 3.297,2.878 4.485,3.318c1.084,0.513 1.693,0.797 1.693,0.797Z" style="fill:#fff;fill-rule:nonzero;"/><path d="M285.504,307.212c-4.675,22.034 -1.591,68.131 26.806,78.519c9.619,3.518 24.125,-1.688 24.141,-12.272c0.006,-4.356 -8.641,-10.616 -9.563,-4.285c-0.924,6.357 7.619,1.379 4.607,8.794c-3.657,9 -18.038,6.953 -23.556,3.288c-8.613,-5.725 -13.401,-12.46 -16.154,-19.591c-3.897,-10.091 -6.156,-19.297 -6.156,-28.834c0,-8.25 0.194,-14.063 1.884,-22.66c0,0 0.629,-1.184 -0.378,-2.293c-0.75,-0.829 -1.631,-0.666 -1.631,-0.666Z" style="fill:#41362a;fill-rule:nonzero;"/><path d="M310.77,259.465c-2.472,14.047 24.459,23.25 34.5,24.2c17.381,1.65 36.462,-2.072 47.609,-16.372c7.463,-9.575 10.841,-19.547 1.872,-26.465c-10.669,-8.232 -17.297,5.496 -8.334,4.315c2.309,-0.306 1.243,-3.394 1.243,-3.89c4.878,-0.853 9.138,3.506 10.007,7.778c1.14,5.584 -2.757,12.234 -6.06,16.187c-3.953,4.728 -8.722,9.228 -23.009,12.688c-11.316,2.737 -19.869,2.2 -31.597,-1.825c-10.697,-3.666 -11.216,-4.932 -18.241,-14.363c-1.593,-2.143 -0.753,-3.459 -4.434,-3.937l-3.556,1.684Z" style="fill:#41362a;fill-rule:nonzero;"/><path d="M306.663,351.209c5.082,3.275 12.779,2.116 18.472,4.765c6.779,3.157 9.944,7.638 18.372,5.269c7.028,-1.972 9.731,-7.29 15.1,-11.372c6.56,-4.984 10.935,-5.25 11.659,-14.215c0.082,-1.038 0.032,-2.05 -0.062,-3.06c4.428,-7.993 4.869,-16.806 2.219,-22.928c-1.063,-1.859 -1.931,-3.625 -3.075,-4.984c-1.269,-1.288 -2.463,-2.41 -3.55,-3.378c-2.569,-1.478 -4.569,-2.725 -6.381,-3.178c-3.625,-0.919 -5.322,-1.15 -5.322,-1.15c0,0 1.365,1.25 3.984,3.65c2.147,2.562 5.638,6.468 5.456,11.825c-0.059,2.575 -0.809,5.465 -2.353,8.287c-2.559,2.222 -6.262,3.369 -11.587,3.347c-7.807,-0.031 -19.31,2.513 -24.96,-4.378c-5.693,-6.947 -0.447,-17.075 -5.765,-24.088c-4.985,-6.572 -11.975,-8.99 -13.875,-17.015c-0.01,-0.222 -0.022,-0.497 -0.035,-0.706c-0.081,-3.429 -0.25,-5.232 -0.25,-5.232c0,0 -0.946,1.481 -2.575,4.597c-0.053,0.11 -0.118,0.256 -0.175,0.372c-10.965,16.572 -11.962,62.822 4.703,73.572Z" style="fill:#41362a;fill-rule:nonzero;"/><path d="M231.623,335.253c0,0 -1.041,1.243 -3.516,3.062c-2.434,1.844 -6.353,4.085 -11.14,6.978c-4.657,2.841 -7.616,5.428 -9.11,7.778c-1.459,2.341 -1.74,4.078 -1.84,4.044c0.134,0.009 -0.863,-1.428 -0.397,-4.694c0.478,-3.243 3.503,-7.743 8.853,-10.94c5.328,-3.21 9.728,-4.381 12.634,-5.207c2.922,-0.771 4.516,-1.021 4.516,-1.021Z" style="fill:#41362a;fill-rule:nonzero;"/><path d="M214.451,384.149c3.059,6.513 8.744,11.26 15.081,14.275c6.347,3.004 13.891,3.988 20.281,2.454c6.369,-1.494 11.032,-4.904 13.604,-8.766c2.581,-3.825 2.884,-7.884 1.996,-11.2c-0.878,-3.322 -3.324,-6.075 -6.356,-7.159c-3.006,-1.188 -5.75,-0.682 -7.584,-0.282c-0.916,0.294 -1.719,0.522 -2.369,0.775c-0.612,0.303 -1.122,0.56 -1.531,0.769c-0.797,0.409 -1.197,0.616 -1.197,0.616c0,0 0.481,-0.132 1.419,-0.391c0.462,-0.131 1.04,-0.291 1.725,-0.481c0.712,-0.1 1.528,-0.213 2.465,-0.341c1.829,-0.037 4.222,0.028 6.16,1.322c1.934,1.241 3.212,3.519 3.353,6.209c0.2,2.691 -0.891,5.788 -3.253,8.391c-0.157,0.184 -0.388,0.341 -0.563,0.519c-6.212,2.706 -13.39,2.644 -17.622,-2.541c-4.668,-5.715 -12.225,-9.956 -10,-17.619c0.913,-3.143 4.157,-5.921 4.703,-9.056c0.644,-3.69 -2.878,-6.4 -2.368,-10c1.19,-8.468 15.034,-12.494 18.887,-19.528c0,0 2.16,-2.381 3.738,-4.016c1.237,-1.2 1.872,-2.293 2.415,-2.925c0.491,-0.659 0.744,-0.99 0.744,-0.99c0,0 -0.344,0.275 -1.019,0.815c-0.703,0.519 -1.568,1.41 -3.009,2.357c-2.853,1.956 -7.528,4.262 -14.056,7.312c-3.247,1.525 -6.935,3.388 -10.735,6.01c-1.781,1.368 -3.715,2.95 -5.318,4.69c-0.819,0.885 -1.657,1.781 -2.507,2.7c-0.765,0.966 -1.453,2.01 -2.203,3.053c-2.859,4.222 -5.197,9.138 -6.275,14.713c-1.094,5.54 -1.369,11.784 1.394,18.315Z" style="fill:#41362a;fill-rule:nonzero;"/><path d="M246.445,361.271c0.462,2.716 1.965,5.422 4.025,7.163c2.043,1.778 4.359,2.669 6.462,3.125c8.519,1.494 14.672,-1.706 18.513,-4.96c3.893,-3.456 4.85,-7.537 4.694,-9.843c-0.144,-2.388 -0.801,-3.394 -0.716,-3.407c-0.069,-0.015 -0.019,1.266 -0.738,3.35c-0.762,2.06 -2.65,4.738 -6.293,6.46c-0.238,0.119 -0.553,0.197 -0.813,0.309c-0.694,-1.403 -3.397,-1.853 -5.609,-3.015c-8.216,-4.3 -1.525,-9.422 0.55,-15.757c2.15,-6.584 8.75,-9.753 12.14,-15.387c2.388,-3.975 0.572,-9.666 -0.625,-14.891c0.2,-1.49 0.353,-2.89 0.478,-4.075c0.179,-1.722 -0.234,-3.222 -0.309,-4.356c-0.306,-2.3 -0.531,-3.391 -0.531,-3.391c0,0 -0.316,1.125 -0.916,3.278c-0.347,1.06 -0.453,2.401 -1.115,3.894c-0.647,1.472 -1.391,3.175 -2.235,5.107c-2.181,3.69 -4.894,8.071 -9.125,13.031c-4.022,5.143 -9.294,10.528 -14.462,18.765c-2.353,4.4 -4.191,9.078 -3.375,14.6Z" style="fill:#41362a;fill-rule:nonzero;"/><path d="M289.523,317.859c0.044,-0.45 -1.128,-0.01 -1.625,0.044c-0.822,4.737 -0.719,10.268 -0.31,15.131c0.419,4.959 1.847,9.184 3.532,14.103c1.597,4.687 4.778,9.987 10.815,14.472c3.875,2.878 14.232,4.453 16.525,-1.885c0.622,-1.725 -0.897,-4.368 -3.553,-3.271c-1.64,0.681 -1.412,3.009 -2.515,4.106c-3.579,3.537 -11.847,-2.103 -14.072,-4.547c-7.8,-8.575 -9.422,-22.037 -9.422,-32.609c0,-1.769 0.5,-4.282 0.625,-5.544Z" style="fill:#41362a;fill-rule:nonzero;"/><path d="M307.495,359.446c-1.394,-0.906 -3.322,-2.4 -3.9,-3.878c-0.541,-1.378 -0.144,-3.018 -0.4,-4.444c-0.575,-3.168 -3.956,-3.318 -6.235,-5.318c-2.497,-2.185 -2.318,-4.95 -2.031,-7.844c0.284,-2.831 0.225,-4.425 -1.384,-6.906c-0.831,-1.278 -1.569,-2.553 -2.291,-3.882c-0.619,-1.128 -0.637,-2.406 -1.228,-3.44c0,0 -0.25,14.347 2.641,20.15c2.89,5.803 6.406,14.231 14.828,15.562Z" style="fill:#41362a;fill-rule:nonzero;"/><path d="M320.038,382.962c-2.446,-4.088 -8.737,-6.759 -13.171,-8.763c-5.397,-2.437 -4.716,-6.665 -7.603,-10.606c-2.21,-3.012 -4.554,-5.553 -6.538,-8.697c-1.963,-3.112 -3.7,-6.75 -4.472,-10.2c-0.25,-1.1 -0.203,-2.296 -0.741,-3.325c0,0 0,11.532 8.547,26.503c6.156,10.797 16.688,15.088 23.978,15.088Z" style="fill:#41362a;fill-rule:nonzero;"/><path d="M328.051,264.512c0.072,-0.225 2.447,4.45 10.362,4.644c1.829,0.087 4.266,0.1 6.288,-0.413c2.091,-0.237 3.772,-1.472 5.206,-2.981c1.457,-1.541 2.397,-3.997 2.841,-6.834c0.337,-1.391 0.24,-2.975 0.347,-4.585c-0.038,-1.778 -0.119,-3.787 -0.094,-5.906c0.066,-4.128 0.391,-8.338 2.109,-12.438c1.519,-4.081 5.55,-7.912 9.678,-8.796c1.904,-0.538 4.338,-0.694 6.244,-0.172c0.985,0.2 1.903,0.493 2.731,0.965c0.863,0.372 1.629,0.863 2.3,1.475c2.822,2.219 4.038,5.8 3.541,8.532c-0.425,2.671 -1.966,4.747 -3.578,5.79c-1.603,1.06 -3.375,1.641 -4.775,1.081c-1.316,-0.468 -1.85,-1.346 -2.019,-1.878c-0.222,-0.515 -0.337,-0.778 -0.337,-0.778c0,0 0.215,0.172 0.628,0.51c0.334,0.384 1.047,0.75 1.85,0.753c1.494,-0.038 3.956,-2.457 3.544,-5.428c-0.119,-1.435 -0.879,-2.603 -2.329,-3.41c-1.49,-0.8 -3.334,-1.012 -5.025,-0.284c-1.956,0.762 -3.171,2.069 -4.071,4.509c-0.879,2.46 -1.185,5.838 -1.21,9.66c-0.003,2.012 -0.006,3.962 -0.009,5.85c-0.175,2.181 -0.231,4.3 -0.834,6.359c-0.991,4.056 -2.91,7.966 -6.138,10.563c-3.134,2.54 -7,3.871 -10.184,3.612c-3.15,-0.003 -5.491,-0.622 -7.747,-1.353c-4.416,-1.444 -7.21,-3.994 -8.228,-5.994c-1.078,-1.966 -1.004,-3.097 -1.091,-3.053Z" style="fill:#41362a;fill-rule:nonzero;"/><path d="M315.901,280.518c0,0 0.731,-0.018 2.05,-0.059c1.312,0.15 3.569,0.344 5.922,2.109c2.337,1.71 4.412,4.828 5.669,8.607c1.406,3.749 1.956,8.303 3.515,12.637c1.472,4.316 3.757,7.741 6.325,9.719c2.585,2.012 5.41,2.128 7.503,1.14c2.125,-0.984 3.372,-2.612 4.207,-3.612c0.762,-1.063 1.19,-1.656 1.19,-1.656c0,0 -0.181,0.675 -0.506,1.9c-0.459,1.215 -1.141,3.212 -3.422,5.112c-2.081,2.016 -6.956,2.891 -10.872,0.45c-3.959,-2.228 -7.047,-6.475 -8.809,-11.572c-1.822,-5.219 -1.997,-9.606 -2.913,-13.128c-0.765,-3.566 -1.981,-6.2 -3.5,-7.975c-3.259,-3.428 -6.531,-3.481 -6.359,-3.672Z" style="fill:#41362a;fill-rule:nonzero;"/><path d="M308.62,387.365c0,0 -2.147,-0.659 -6.303,-2.434c-3.804,-2.135 -9.713,-5.775 -14.444,-12.722c-2.419,-3.338 -3.653,-6.791 -4.403,-9.7c-0.757,-2.944 -0.991,-5.441 -1.21,-7.447c-0.368,-4.009 -0.453,-6.15 -0.453,-6.15c0,0 0.91,1.869 2.119,5.687c1.344,3.776 2.444,9.632 6.9,16.016c9.256,12.888 18.181,16.394 17.794,16.75Z" style="fill:#41362a;fill-rule:nonzero;"/><path d="M267.576,354.053c0,0 -0.188,-1.216 0.106,-3.76c0.535,-2.372 1.966,-6 4.853,-9.594c2.75,-3.543 4.947,-5.9 6.391,-7.725c1.269,-1.825 2.131,-2.984 2.131,-2.984c0,0 0.328,1.194 0.063,3.75c-0.438,2.453 -1.994,6.006 -4.85,9.647c-2.897,3.628 -4.919,6.062 -6.475,7.837c-1.247,1.832 -2.219,2.829 -2.219,2.829Z" style="fill:#41362a;fill-rule:nonzero;"/><path d="M253.051,384.834c0,0 -0.456,0.153 -1.238,0.419c-0.846,0.346 -2.228,0.49 -4.125,0.387c-3.662,-0.419 -9.268,-2.475 -12.743,-8.075c-1.491,-2.816 -1.369,-5.644 -0.7,-7.809c0.647,-2.21 1.878,-3.772 2.812,-5.007c2.035,-2.378 3.403,-3.425 3.403,-3.425c0,0 -0.462,1.416 -1.497,4.019c-0.921,2.578 -2.512,6.494 -0.287,10.928c2.631,4.253 6.788,6.778 9.547,7.788c2.915,0.969 4.837,0.647 4.828,0.775Z" style="fill:#41362a;fill-rule:nonzero;"/><path d="M362.179,274.393c0,0 0.503,-0.128 1.363,-0.344c0.887,-0.168 2.181,-0.603 3.806,-1.187c3.231,-1.247 7.937,-3.378 13.225,-7.297c5.112,-3.862 8,-7.778 9.072,-10.903c1.04,-3.131 0.687,-5.2 0.828,-5.191c-0.178,0.025 1.362,1.466 1.5,5.369c0.1,3.853 -2.472,9.766 -8.553,14.297c-6.094,4.506 -11.903,5.756 -15.647,5.95c-1.903,0.053 -3.319,-0.075 -4.241,-0.331c-0.856,-0.228 -1.353,-0.363 -1.353,-0.363Z" style="fill:#41362a;fill-rule:nonzero;"/><path d="M342.41,263.899c-0.078,-0.106 1.422,-0.24 2.785,-1.846c1.375,-1.597 2.078,-4.816 2.369,-9.25c0.271,-4.328 0.343,-7.813 0.587,-10.191c0.206,-2.384 0.541,-3.644 0.541,-3.644c0,0 0.359,1.163 0.84,3.463c0.447,2.303 1.103,5.787 0.81,10.559c-0.282,4.719 -1.872,8.575 -4.232,10.084c-2.365,1.432 -3.768,0.657 -3.7,0.825Z" style="fill:#41362a;fill-rule:nonzero;"/><path d="M327.879,256.159c0,-1.863 1.55,-3.372 3.463,-3.372c1.912,0 3.462,1.509 3.462,3.372c0,1.862 -1.55,3.375 -3.462,3.375c-1.913,0 -3.463,-1.513 -3.463,-3.375Z" style="fill:#41362a;fill-rule:nonzero;"/><path d="M315.132,371.512c0,-1.863 1.55,-3.375 3.466,-3.375c1.912,0 3.462,1.512 3.462,3.375c0,1.862 -1.55,3.372 -3.462,3.372c-1.916,0 -3.466,-1.51 -3.466,-3.372Z" style="fill:#41362a;fill-rule:nonzero;"/><path d="M249.592,380.14c0,-1.859 1.546,-3.372 3.459,-3.372c1.912,0 3.466,1.513 3.466,3.372c0,1.863 -1.554,3.372 -3.466,3.372c-1.913,0 -3.459,-1.509 -3.459,-3.372Z" style="fill:#41362a;fill-rule:nonzero;"/><path d="M235.607,350.656c0,-1.866 1.55,-3.372 3.463,-3.372c1.912,0 3.465,1.506 3.465,3.372c0,1.859 -1.553,3.372 -3.465,3.372c-1.913,0 -3.463,-1.513 -3.463,-3.372Z" style="fill:#41362a;fill-rule:nonzero;"/><path d="M363.079,329.968c0,0 -0.022,1.266 -0.463,3.744c-0.612,2.419 -2.456,6.056 -6.734,9.012c-4.2,3 -10.481,5.15 -18.134,5.816c-3.822,0.3 -8.01,0.306 -12.444,-0.422c-2.209,-0.412 -4.487,-0.95 -6.744,-1.878c-2.284,-0.962 -4.321,-2.359 -6.375,-3.875c-3.968,-3.069 -6.615,-7.247 -7.887,-11.403c-1.316,-4.169 -1.572,-8.225 -1.581,-11.919c0.118,-7.412 1.115,-13.55 1.5,-18.537c0.54,-4.994 0.234,-8.778 0.278,-11.382c-0.028,-1.271 -0.178,-2.24 -0.403,-2.85c-0.213,-0.612 -0.328,-0.931 -0.328,-0.931c-0.072,0.013 0.771,1.075 1.006,3.591c0.115,2.444 0.672,6.19 0.4,11.147c-0.122,4.953 -0.897,11.112 -0.885,18.418c0.063,3.641 0.325,7.6 1.572,11.6c1.253,3.979 3.706,7.894 7.51,10.872c3.815,3.032 8.006,4.813 12.328,5.463c4.259,0.737 8.334,0.794 12.05,0.575c7.453,-0.488 13.572,-2.394 17.703,-5.091c4.197,-2.653 6.125,-6.009 6.906,-8.322c0.575,-2.372 0.725,-3.628 0.725,-3.628Z" style="fill:#fff;fill-rule:nonzero;"/><path d="M229.848,393.718c0,0 -0.544,-0.44 -1.538,-1.256c-1.065,-0.813 -2.409,-2.213 -4.003,-4.169c-3.059,-3.94 -6.922,-10.484 -7.89,-19.772c-0.832,-9.081 2.7,-16.153 6.684,-19.69c2.056,-1.728 3.803,-2.881 5.175,-3.416c1.272,-0.594 1.966,-0.919 1.966,-0.919c0,0 -0.613,0.366 -1.738,1.044c-1.234,0.597 -2.759,1.819 -4.616,3.525c-3.487,3.553 -6.656,10.266 -5.85,19.363c0.947,9.071 4.347,15.55 6.994,19.571c1.391,1.994 2.556,3.466 3.485,4.344c0.865,0.894 1.331,1.375 1.331,1.375Z" style="fill:#fff;fill-rule:nonzero;"/><path d="M274.51,317.909c0,0 -0.425,2.584 -3.19,6.803c-2.625,4.266 -7.325,10.091 -12.866,18.066c-5.284,7.628 -8.641,14.918 -6.234,19.356c1.081,2.14 2.847,3.169 3.9,3.872c1.131,0.575 1.762,0.9 1.762,0.9c0,0 -0.647,-0.219 -1.806,-0.613c-1.113,-0.547 -3.053,-1.284 -4.541,-3.503c-1.568,-2.181 -1.822,-5.762 -0.665,-9.372c1.097,-3.656 3.244,-7.537 6.037,-11.637c5.681,-8.166 10.713,-13.663 13.672,-17.619c3.091,-3.881 3.931,-6.253 3.931,-6.253Z" style="fill:#fff;fill-rule:nonzero;"/><path d="M367.01,229.674c0,0 -0.59,0.335 -1.643,0.935c-1.147,0.512 -2.641,1.659 -4.197,3.506c-1.472,1.938 -2.585,4.763 -3.166,8.309c-0.472,3.554 -0.837,7.788 -1.119,12.547c-0.206,4.619 -0.884,9.082 -3.331,12.038c-2.294,3.134 -5.747,3.972 -8.162,4.469c-2.532,0.506 -4.516,0.225 -5.8,0.072c-1.216,-0.341 -1.9,-0.535 -1.9,-0.535c0,0 0.656,0.138 1.834,0.378c1.234,0.088 3.122,0.244 5.534,-0.319c2.294,-0.593 5.61,-1.384 7.697,-4.312c2.313,-2.791 3.006,-7.066 3.2,-11.841c0.288,-4.847 0.706,-9.043 1.282,-12.678c0.681,-3.625 1.987,-6.522 3.593,-8.453c1.716,-1.825 3.297,-2.878 4.485,-3.312c1.084,-0.516 1.693,-0.804 1.693,-0.804Z" style="fill:#fff;fill-rule:nonzero;"/><path d="M114.626,307.212c4.675,22.034 1.591,68.131 -26.806,78.519c-9.619,3.518 -24.125,-1.688 -24.144,-12.272c-0.006,-4.356 8.644,-10.616 9.566,-4.285c0.921,6.357 -7.622,1.379 -4.607,8.794c3.657,9 18.038,6.953 23.55,3.288c8.619,-5.725 13.403,-12.46 16.157,-19.591c3.893,-10.091 6.159,-19.297 6.159,-28.834c0,-8.25 -0.194,-14.063 -1.888,-22.66c0,0 -0.628,-1.184 0.382,-2.293c0.75,-0.829 1.631,-0.666 1.631,-0.666Z" style="fill:#41362a;fill-rule:nonzero;"/><path d="M89.36,259.465c2.472,14.047 -24.459,23.25 -34.503,24.2c-17.378,1.65 -36.459,-2.072 -47.606,-16.372c-7.463,-9.575 -10.841,-19.547 -1.872,-26.465c10.669,-8.232 17.297,5.496 8.334,4.315c-2.309,-0.306 -1.243,-3.394 -1.246,-3.89c-4.875,-0.853 -9.138,3.506 -10.01,7.778c-1.134,5.584 2.76,12.234 6.066,16.187c3.953,4.728 8.722,9.228 23.006,12.688c11.316,2.737 19.872,2.2 31.6,-1.825c10.694,-3.666 11.209,-4.932 18.238,-14.363c1.596,-2.143 0.753,-3.459 4.431,-3.937l3.562,1.684Z" style="fill:#41362a;fill-rule:nonzero;"/><path d="M93.463,351.209c-5.078,3.275 -12.775,2.116 -18.471,4.765c-6.779,3.157 -9.944,7.638 -18.369,5.269c-7.031,-1.972 -9.735,-7.29 -15.103,-11.372c-6.56,-4.984 -10.938,-5.25 -11.657,-14.215c-0.081,-1.038 -0.034,-2.05 0.063,-3.06c-4.428,-7.993 -4.872,-16.806 -2.219,-22.928c1.06,-1.859 1.931,-3.625 3.075,-4.984c1.269,-1.288 2.463,-2.41 3.547,-3.378c2.572,-1.478 4.569,-2.725 6.384,-3.178c3.625,-0.919 5.322,-1.15 5.322,-1.15c0,0 -1.368,1.25 -3.987,3.65c-2.147,2.562 -5.635,6.468 -5.456,11.825c0.062,2.575 0.812,5.465 2.356,8.287c2.559,2.222 6.262,3.369 11.581,3.347c7.81,-0.031 19.316,2.513 24.963,-4.378c5.696,-6.947 0.45,-17.075 5.765,-24.088c4.988,-6.572 11.975,-8.99 13.875,-17.015c0.013,-0.222 0.025,-0.497 0.035,-0.706c0.081,-3.429 0.253,-5.232 0.253,-5.232c0,0 0.944,1.481 2.575,4.597c0.05,0.11 0.118,0.256 0.168,0.372c10.969,16.572 11.969,62.822 -4.7,73.572Z" style="fill:#41362a;fill-rule:nonzero;"/><path d="M168.507,335.253c0,0 1.038,1.243 3.513,3.062c2.437,1.844 6.353,4.085 11.143,6.978c4.657,2.841 7.613,5.428 9.107,7.778c1.462,2.341 1.74,4.078 1.843,4.044c-0.137,0.009 0.863,-1.428 0.394,-4.694c-0.478,-3.243 -3.506,-7.743 -8.85,-10.94c-5.331,-3.21 -9.731,-4.381 -12.634,-5.207c-2.925,-0.771 -4.516,-1.021 -4.516,-1.021Z" style="fill:#41362a;fill-rule:nonzero;"/><path d="M185.676,384.149c-3.056,6.513 -8.741,11.26 -15.078,14.275c-6.347,3.004 -13.891,3.988 -20.285,2.454c-6.365,-1.494 -11.028,-4.904 -13.606,-8.766c-2.575,-3.825 -2.878,-7.884 -1.99,-11.2c0.875,-3.322 3.325,-6.075 6.356,-7.159c3.006,-1.188 5.75,-0.682 7.581,-0.282c0.919,0.294 1.719,0.522 2.372,0.775c0.609,0.303 1.122,0.56 1.531,0.769c0.797,0.409 1.197,0.616 1.197,0.616c0,0 -0.481,-0.132 -1.422,-0.391c-0.462,-0.131 -1.04,-0.291 -1.725,-0.481c-0.709,-0.1 -1.531,-0.213 -2.462,-0.341c-1.828,-0.037 -4.222,0.028 -6.163,1.322c-1.931,1.241 -3.209,3.519 -3.35,6.209c-0.203,2.691 0.891,5.788 3.253,8.391c0.157,0.184 0.388,0.341 0.56,0.519c6.212,2.706 13.393,2.644 17.625,-2.541c4.668,-5.715 12.222,-9.956 9.997,-17.619c-0.916,-3.143 -4.154,-5.921 -4.704,-9.056c-0.643,-3.69 2.882,-6.4 2.372,-10c-1.193,-8.468 -15.034,-12.494 -18.887,-19.528c0,0 -2.163,-2.381 -3.738,-4.016c-1.24,-1.2 -1.878,-2.293 -2.418,-2.925c-0.494,-0.659 -0.744,-0.99 -0.744,-0.99c0,0 0.344,0.275 1.015,0.815c0.707,0.519 1.572,1.41 3.013,2.357c2.853,1.956 7.525,4.262 14.053,7.312c3.247,1.525 6.938,3.388 10.741,6.01c1.778,1.368 3.712,2.95 5.318,4.69c0.819,0.885 1.65,1.781 2.507,2.7c0.765,0.966 1.453,2.01 2.2,3.053c2.859,4.222 5.2,9.138 6.278,14.713c1.09,5.54 1.369,11.784 -1.397,18.315Z" style="fill:#41362a;fill-rule:nonzero;"/><path d="M153.685,361.271c-0.462,2.716 -1.965,5.422 -4.025,7.163c-2.043,1.778 -4.362,2.669 -6.465,3.125c-8.519,1.494 -14.675,-1.706 -18.513,-4.96c-3.89,-3.456 -4.847,-7.537 -4.694,-9.843c0.147,-2.388 0.804,-3.394 0.713,-3.407c0.075,-0.015 0.025,1.266 0.744,3.35c0.759,2.06 2.643,4.738 6.287,6.46c0.244,0.119 0.56,0.197 0.819,0.309c0.694,-1.403 3.397,-1.853 5.606,-3.015c8.213,-4.3 1.525,-9.422 -0.547,-15.757c-2.15,-6.584 -8.753,-9.753 -12.143,-15.387c-2.385,-3.975 -0.569,-9.666 0.628,-14.891c-0.2,-1.49 -0.357,-2.89 -0.482,-4.075c-0.175,-1.722 0.238,-3.222 0.313,-4.356c0.306,-2.3 0.531,-3.391 0.531,-3.391c0,0 0.313,1.125 0.916,3.278c0.347,1.06 0.45,2.401 1.112,3.894c0.647,1.472 1.394,3.175 2.238,5.107c2.178,3.69 4.894,8.071 9.125,13.031c4.019,5.143 9.294,10.528 14.459,18.765c2.353,4.4 4.194,9.078 3.378,14.6Z" style="fill:#41362a;fill-rule:nonzero;"/><path d="M110.604,317.859c-0.047,-0.45 1.131,-0.01 1.625,0.044c0.825,4.737 0.722,10.268 0.309,15.131c-0.418,4.959 -1.846,9.184 -3.528,14.103c-1.6,4.687 -4.781,9.987 -10.815,14.472c-3.875,2.878 -14.235,4.453 -16.525,-1.885c-0.622,-1.725 0.893,-4.368 3.553,-3.271c1.637,0.681 1.412,3.009 2.512,4.106c3.582,3.537 11.85,-2.103 14.072,-4.547c7.803,-8.575 9.425,-22.037 9.425,-32.609c0,-1.769 -0.5,-4.282 -0.628,-5.544Z" style="fill:#41362a;fill-rule:nonzero;"/><path d="M92.635,359.446c1.394,-0.906 3.316,-2.4 3.897,-3.878c0.544,-1.378 0.147,-3.018 0.403,-4.444c0.575,-3.168 3.957,-3.318 6.235,-5.318c2.497,-2.185 2.315,-4.95 2.028,-7.844c-0.281,-2.831 -0.225,-4.425 1.387,-6.906c0.825,-1.278 1.569,-2.553 2.291,-3.882c0.616,-1.128 0.634,-2.406 1.225,-3.44c0,0 0.253,14.347 -2.638,20.15c-2.89,5.803 -6.409,14.231 -14.828,15.562Z" style="fill:#41362a;fill-rule:nonzero;"/><path d="M80.088,382.962c2.447,-4.088 8.741,-6.759 13.175,-8.763c5.394,-2.437 4.716,-6.665 7.604,-10.606c2.209,-3.012 4.553,-5.553 6.534,-8.697c1.959,-3.112 3.703,-6.75 4.475,-10.2c0.244,-1.1 0.203,-2.296 0.737,-3.325c0,0 0,11.532 -8.543,26.503c-6.163,10.797 -16.694,15.088 -23.982,15.088Z" style="fill:#41362a;fill-rule:nonzero;"/><path d="M72.076,264.512c-0.075,-0.225 -2.444,4.45 -10.366,4.644c-1.825,0.087 -4.262,0.1 -6.281,-0.413c-2.091,-0.237 -3.772,-1.472 -5.206,-2.981c-1.456,-1.541 -2.397,-3.997 -2.844,-6.834c-0.337,-1.391 -0.244,-2.975 -0.344,-4.585c0.038,-1.778 0.116,-3.787 0.091,-5.906c-0.066,-4.128 -0.391,-8.338 -2.106,-12.438c-1.522,-4.081 -5.553,-7.912 -9.678,-8.796c-1.904,-0.538 -4.341,-0.694 -6.244,-0.172c-0.991,0.2 -1.903,0.493 -2.731,0.965c-0.863,0.372 -1.632,0.863 -2.3,1.475c-2.825,2.219 -4.041,5.8 -3.544,8.532c0.425,2.671 1.969,4.747 3.578,5.79c1.606,1.06 3.375,1.641 4.778,1.081c1.313,-0.468 1.844,-1.346 2.019,-1.878c0.219,-0.515 0.334,-0.778 0.334,-0.778c0,0 -0.212,0.172 -0.628,0.51c-0.331,0.384 -1.047,0.75 -1.847,0.753c-1.493,-0.038 -3.956,-2.457 -3.544,-5.428c0.119,-1.435 0.879,-2.603 2.325,-3.41c1.491,-0.8 3.332,-1.012 5.022,-0.284c1.963,0.762 3.178,2.069 4.079,4.509c0.874,2.46 1.184,5.838 1.206,9.66c0.003,2.012 0.009,3.962 0.012,5.85c0.172,2.181 0.231,4.3 0.831,6.359c0.994,4.056 2.913,7.966 6.141,10.563c3.134,2.54 6.997,3.871 10.184,3.612c3.15,-0.003 5.491,-0.622 7.744,-1.353c4.416,-1.444 7.213,-3.994 8.228,-5.994c1.078,-1.966 1.003,-3.097 1.091,-3.053Z" style="fill:#41362a;fill-rule:nonzero;"/><path d="M84.229,280.518c0,0 -0.731,-0.018 -2.05,-0.059c-1.316,0.15 -3.572,0.344 -5.922,2.109c-2.337,1.71 -4.415,4.828 -5.669,8.607c-1.406,3.749 -1.959,8.303 -3.518,12.637c-1.469,4.316 -3.757,7.741 -6.322,9.719c-2.588,2.012 -5.413,2.128 -7.506,1.14c-2.122,-0.984 -3.375,-2.612 -4.204,-3.612c-0.765,-1.063 -1.193,-1.656 -1.193,-1.656c0,0 0.184,0.675 0.509,1.9c0.456,1.215 1.141,3.212 3.422,5.112c2.081,2.016 6.953,2.891 10.872,0.45c3.959,-2.228 7.047,-6.475 8.809,-11.572c1.822,-5.219 1.997,-9.606 2.913,-13.128c0.759,-3.566 1.981,-6.2 3.493,-7.975c3.263,-3.428 6.538,-3.481 6.366,-3.672Z" style="fill:#41362a;fill-rule:nonzero;"/><path d="M91.51,387.365c0,0 2.147,-0.659 6.303,-2.434c3.804,-2.135 9.713,-5.775 14.441,-12.722c2.422,-3.338 3.656,-6.791 4.403,-9.7c0.76,-2.944 0.991,-5.441 1.21,-7.447c0.365,-4.009 0.453,-6.15 0.453,-6.15c0,0 -0.907,1.869 -2.116,5.687c-1.347,3.776 -2.444,9.632 -6.9,16.016c-9.256,12.888 -18.181,16.394 -17.794,16.75Z" style="fill:#41362a;fill-rule:nonzero;"/><path d="M132.551,354.053c0,0 0.187,-1.216 -0.103,-3.76c-0.538,-2.372 -1.972,-6 -4.856,-9.594c-2.75,-3.543 -4.947,-5.9 -6.388,-7.725c-1.275,-1.825 -2.131,-2.984 -2.131,-2.984c0,0 -0.331,1.194 -0.066,3.75c0.441,2.453 1.994,6.006 4.85,9.647c2.897,3.628 4.919,6.062 6.472,7.837c1.253,1.832 2.222,2.829 2.222,2.829Z" style="fill:#41362a;fill-rule:nonzero;"/><path d="M147.076,384.834c0,0 0.45,0.153 1.234,0.419c0.847,0.346 2.235,0.49 4.132,0.387c3.662,-0.419 9.265,-2.475 12.743,-8.075c1.488,-2.816 1.363,-5.644 0.694,-7.809c-0.644,-2.21 -1.875,-3.772 -2.806,-5.007c-2.035,-2.378 -3.403,-3.425 -3.403,-3.425c0,0 0.459,1.416 1.497,4.019c0.921,2.578 2.509,6.494 0.281,10.928c-2.625,4.253 -6.781,6.778 -9.544,7.788c-2.916,0.969 -4.834,0.647 -4.828,0.775Z" style="fill:#41362a;fill-rule:nonzero;"/><path d="M37.951,274.393c0,0 -0.503,-0.128 -1.366,-0.344c-0.884,-0.168 -2.178,-0.603 -3.803,-1.187c-3.234,-1.247 -7.937,-3.378 -13.225,-7.297c-5.115,-3.862 -8,-7.778 -9.072,-10.903c-1.04,-3.131 -0.69,-5.2 -0.828,-5.191c0.175,0.025 -1.365,1.466 -1.503,5.369c-0.097,3.853 2.472,9.766 8.556,14.297c6.088,4.506 11.903,5.756 15.647,5.95c1.9,0.053 3.316,-0.075 4.238,-0.331c0.856,-0.228 1.356,-0.363 1.356,-0.363Z" style="fill:#41362a;fill-rule:nonzero;"/><path d="M57.72,263.899c0.075,-0.106 -1.425,-0.24 -2.788,-1.846c-1.372,-1.597 -2.078,-4.816 -2.365,-9.25c-0.272,-4.328 -0.347,-7.813 -0.588,-10.191c-0.206,-2.384 -0.544,-3.644 -0.544,-3.644c0,0 -0.356,1.163 -0.837,3.463c-0.447,2.303 -1.103,5.787 -0.813,10.559c0.285,4.719 1.872,8.575 4.235,10.084c2.362,1.432 3.765,0.657 3.7,0.825Z" style="fill:#41362a;fill-rule:nonzero;"/><path d="M72.248,256.159c0,-1.863 -1.55,-3.372 -3.463,-3.372c-1.909,0 -3.459,1.509 -3.459,3.372c0,1.862 1.55,3.375 3.459,3.375c1.913,0 3.463,-1.513 3.463,-3.375Z" style="fill:#41362a;fill-rule:nonzero;"/><path d="M84.995,371.512c0,-1.863 -1.55,-3.375 -3.463,-3.375c-1.912,0 -3.462,1.512 -3.462,3.375c0,1.862 1.55,3.372 3.462,3.372c1.913,0 3.463,-1.51 3.463,-3.372Z" style="fill:#41362a;fill-rule:nonzero;"/><path d="M150.538,380.14c0,-1.859 -1.55,-3.372 -3.462,-3.372c-1.913,0 -3.466,1.513 -3.466,3.372c0,1.863 1.553,3.372 3.466,3.372c1.912,0 3.462,-1.509 3.462,-3.372Z" style="fill:#41362a;fill-rule:nonzero;"/><path d="M164.523,350.656c0,-1.866 -1.55,-3.372 -3.466,-3.372c-1.912,0 -3.462,1.506 -3.462,3.372c0,1.859 1.55,3.372 3.462,3.372c1.916,0 3.466,-1.513 3.466,-3.372Z" style="fill:#41362a;fill-rule:nonzero;"/><path d="M37.048,329.968c0,0 0.025,1.266 0.462,3.744c0.616,2.419 2.457,6.056 6.735,9.012c4.2,3 10.484,5.15 18.134,5.816c3.825,0.3 8.009,0.306 12.447,-0.422c2.209,-0.412 4.484,-0.95 6.744,-1.878c2.281,-0.962 4.322,-2.359 6.375,-3.875c3.965,-3.069 6.615,-7.247 7.884,-11.403c1.316,-4.169 1.569,-8.225 1.584,-11.919c-0.118,-7.412 -1.118,-13.55 -1.5,-18.537c-0.543,-4.994 -0.234,-8.778 -0.278,-11.382c0.025,-1.271 0.178,-2.24 0.403,-2.85c0.213,-0.612 0.322,-0.931 0.322,-0.931c0.078,0.013 -0.765,1.075 -1.003,3.591c-0.115,2.444 -0.669,6.19 -0.397,11.147c0.119,4.953 0.897,11.112 0.882,18.418c-0.063,3.641 -0.322,7.6 -1.575,11.6c-1.247,3.979 -3.704,7.894 -7.507,10.872c-3.815,3.032 -8.003,4.813 -12.325,5.463c-4.262,0.737 -8.334,0.794 -12.053,0.575c-7.45,-0.488 -13.572,-2.394 -17.7,-5.091c-4.203,-2.653 -6.128,-6.009 -6.906,-8.322c-0.575,-2.372 -0.728,-3.628 -0.728,-3.628Z" style="fill:#fff;fill-rule:nonzero;"/><path d="M170.282,393.718c0,0 0.538,-0.44 1.535,-1.256c1.065,-0.813 2.409,-2.213 4.006,-4.169c3.056,-3.94 6.922,-10.484 7.887,-19.772c0.832,-9.081 -2.7,-16.153 -6.681,-19.69c-2.056,-1.728 -3.806,-2.881 -5.178,-3.416c-1.272,-0.594 -1.963,-0.919 -1.963,-0.919c0,0 0.607,0.366 1.735,1.044c1.237,0.597 2.762,1.819 4.619,3.525c3.487,3.553 6.656,10.266 5.85,19.363c-0.95,9.071 -4.35,15.55 -6.997,19.571c-1.397,1.994 -2.553,3.466 -3.488,4.344c-0.859,0.894 -1.325,1.375 -1.325,1.375Z" style="fill:#fff;fill-rule:nonzero;"/><path d="M125.62,317.909c0,0 0.418,2.584 3.19,6.803c2.625,4.266 7.322,10.091 12.863,18.066c5.287,7.628 8.644,14.918 6.228,19.356c-1.075,2.14 -2.841,3.169 -3.894,3.872c-1.128,0.575 -1.762,0.9 -1.762,0.9c0,0 0.647,-0.219 1.809,-0.613c1.109,-0.547 3.05,-1.284 4.538,-3.503c1.568,-2.181 1.825,-5.762 0.665,-9.372c-1.097,-3.656 -3.24,-7.537 -6.037,-11.637c-5.678,-8.166 -10.71,-13.663 -13.672,-17.619c-3.091,-3.881 -3.928,-6.253 -3.928,-6.253Z" style="fill:#fff;fill-rule:nonzero;"/><path d="M33.12,229.674c0,0 0.587,0.335 1.637,0.935c1.153,0.512 2.647,1.659 4.2,3.506c1.472,1.938 2.585,4.763 3.169,8.309c0.472,3.554 0.834,7.788 1.119,12.547c0.203,4.619 0.881,9.082 3.331,12.038c2.294,3.134 5.747,3.972 8.162,4.469c2.532,0.506 4.513,0.225 5.797,0.072c1.219,-0.341 1.903,-0.535 1.903,-0.535c0,0 -0.656,0.138 -1.834,0.378c-1.237,0.088 -3.122,0.244 -5.537,-0.319c-2.291,-0.593 -5.607,-1.384 -7.694,-4.312c-2.319,-2.791 -3.006,-7.066 -3.2,-11.841c-0.291,-4.847 -0.71,-9.043 -1.281,-12.678c-0.682,-3.625 -1.991,-6.522 -3.597,-8.453c-1.713,-1.825 -3.294,-2.878 -4.485,-3.312c-1.084,-0.516 -1.69,-0.804 -1.69,-0.804Z" style="fill:#fff;fill-rule:nonzero;"/><path d="M50.495,173.468c0,0 -0.185,0.863 -0.522,2.469c-0.16,0.841 -0.425,1.875 -0.96,3.022c-0.506,1.159 -0.975,2.609 -1.903,4.022c-1.634,2.987 -4.209,6.428 -8.084,9.837c-3.978,3.169 -9.4,6.672 -17.031,6.503c-3.5,-0.368 -6.591,-1.393 -9.335,-3.012c-2.603,-1.553 -5.368,-4.322 -5.243,-7.856c-0.032,-1.675 0.628,-3.085 1.265,-4.175c0.631,-1.157 1.553,-2.216 2.703,-2.969c2.491,-1.391 5.066,-0.778 6.675,0.141c3.391,1.878 4.341,5.393 3.425,7.128c-0.897,1.687 -1.937,1.865 -1.84,1.953c-0.1,-0.044 0.75,-0.585 1.15,-2.063c0.365,-1.453 -0.747,-3.778 -3.457,-4.853c-1.281,-0.559 -2.912,-0.609 -4.021,0.169c-0.575,0.35 -1.004,1.003 -1.413,1.8c-0.409,0.878 -0.728,1.753 -0.678,2.547c-0.175,3.15 5.55,6.15 11.187,6.694c5.472,0.128 10.597,-2.482 14.325,-5.066c3.747,-2.75 6.55,-5.609 8.538,-8.094c1.972,-2.487 3.375,-4.534 4.047,-6c0.759,-1.431 1.172,-2.197 1.172,-2.197Z" style="fill:#41362a;fill-rule:nonzero;"/><path d="M50.473,228.659c0,0 -0.413,-0.778 -1.178,-2.222c-0.35,-0.744 -0.825,-1.641 -1.566,-2.625c-0.722,-0.991 -1.387,-2.225 -2.503,-3.406c-1.981,-2.507 -4.813,-5.338 -8.544,-8.094c-3.734,-2.572 -8.837,-5.144 -14.269,-5.016c-5.45,0.519 -11.065,3.369 -11.181,6.46c-0.14,1.493 0.919,3.659 1.863,4.468c1.075,0.832 2.665,0.872 4,0.388c2.765,-0.984 4.053,-3.35 3.703,-4.853c-0.363,-1.535 -1.269,-2.116 -1.166,-2.156c-0.09,0.087 0.878,0.237 1.81,1.815c0.937,1.616 0.218,5.103 -3.06,7.075c-1.525,0.994 -3.994,1.744 -6.55,0.538c-1.275,-0.578 -2.225,-1.666 -2.95,-2.797c-0.665,-1.091 -1.347,-2.409 -1.462,-4.085c-0.235,-1.671 0.447,-3.44 1.365,-4.856c0.966,-1.431 2.269,-2.434 3.635,-3.353c2.793,-1.675 5.959,-2.762 9.575,-3.144c7.684,-0.162 13.118,3.375 17.09,6.56c3.885,3.409 6.425,6.878 8.053,9.84c1.613,2.972 2.535,5.347 2.829,7.016c0.328,1.591 0.506,2.447 0.506,2.447Z" style="fill:#41362a;fill-rule:nonzero;"/><path d="M349.635,228.131c0,0 0.185,-0.869 0.519,-2.472c0.163,-0.844 0.428,-1.875 0.959,-3.025c0.507,-1.156 0.976,-2.61 1.907,-4.022c1.634,-2.984 4.209,-6.428 8.081,-9.838c3.981,-3.165 9.403,-6.668 17.031,-6.503c3.497,0.372 6.594,1.397 9.338,3.013c2.603,1.556 5.365,4.322 5.24,7.856c0.035,1.675 -0.628,3.084 -1.262,4.178c-0.631,1.153 -1.553,2.216 -2.703,2.966c-2.491,1.39 -5.069,0.778 -6.679,-0.141c-3.39,-1.878 -4.343,-5.394 -3.424,-7.128c0.9,-1.684 1.937,-1.865 1.84,-1.953c0.1,0.044 -0.747,0.587 -1.147,2.062c-0.365,1.454 0.741,3.779 3.453,4.857c1.285,0.559 2.916,0.606 4.026,-0.172c0.574,-0.347 1.003,-0.997 1.412,-1.8c0.409,-0.872 0.725,-1.75 0.678,-2.547c0.172,-3.147 -5.55,-6.144 -11.187,-6.688c-5.472,-0.131 -10.597,2.479 -14.325,5.06c-3.75,2.753 -6.55,5.609 -8.538,8.1c-1.972,2.484 -3.375,4.528 -4.047,6c-0.762,1.428 -1.172,2.197 -1.172,2.197Z" style="fill:#41362a;fill-rule:nonzero;"/><path d="M349.657,172.937c0,0 0.413,0.778 1.175,2.222c0.347,0.741 0.825,1.637 1.569,2.622c0.719,0.993 1.384,2.225 2.5,3.406c1.984,2.506 4.816,5.337 8.547,8.097c3.728,2.569 8.837,5.147 14.269,5.016c5.45,-0.519 11.065,-3.372 11.181,-6.463c0.14,-1.488 -0.922,-3.659 -1.863,-4.469c-1.075,-0.831 -2.668,-0.872 -4,-0.387c-2.765,0.984 -4.053,3.356 -3.703,4.853c0.356,1.537 1.266,2.116 1.166,2.159c0.087,-0.09 -0.878,-0.24 -1.81,-1.815c-0.943,-1.619 -0.218,-5.104 3.057,-7.078c1.528,-0.988 3.994,-1.741 6.553,-0.538c1.272,0.581 2.225,1.666 2.95,2.8c0.662,1.087 1.347,2.406 1.459,4.081c0.238,1.672 -0.447,3.447 -1.362,4.857c-0.969,1.431 -2.272,2.434 -3.635,3.353c-2.793,1.678 -5.959,2.762 -9.578,3.143c-7.684,0.169 -13.119,-3.375 -17.087,-6.559c-3.891,-3.406 -6.428,-6.875 -8.06,-9.841c-1.606,-2.972 -2.528,-5.347 -2.822,-7.012c-0.328,-1.594 -0.506,-2.447 -0.506,-2.447Z" style="fill:#41362a;fill-rule:nonzero;"/><path d="M248.138,246.198l-100.104,0c-2.736,0 -4.975,0.22 -4.975,0.488l0,1.756c0,2.038 11.492,3.813 28.457,4.737c0.048,1.253 1.263,2.267 2.756,2.267l47.629,0c1.492,0 2.712,-1.014 2.76,-2.267c16.961,-0.924 28.453,-2.699 28.453,-4.737l0,-1.756c0,-0.268 -2.239,-0.488 -4.976,-0.488Z" style="fill:#fff;fill-rule:nonzero;"/><path d="M254.947,200.33c-2.106,-2.923 -7.962,-4.621 -12.694,-5.095l0,5.578c2.287,0.307 6.962,1.063 8.187,2.761c1.832,2.55 0.899,6.536 0.177,8.679c-1.33,3.981 -7.622,8.76 -11.205,11.363c-0.914,2.717 -4.55,7.937 -5.948,10.43c7.144,-1.866 20.033,-12.894 22.42,-20.023c1.852,-5.535 1.526,-10.267 -0.937,-13.693Z" style="fill:#fff;fill-rule:nonzero;"/><path d="M189.046,155.199c-10.856,10.746 7.55,18.879 3.871,37.098c16.09,-20.424 -10.09,-22.639 -3.871,-37.098Z" style="fill:#fff;fill-rule:nonzero;"/><path d="M194.558,171.782c11.119,-14.114 -6.971,-15.645 -2.675,-25.635c-7.502,7.425 5.22,13.042 2.675,25.635Z" style="fill:#fff;fill-rule:nonzero;"/><path d="M238.397,190.106l-80.622,0c-0.727,0 -1.406,0.206 -1.995,0.541c13.483,1.014 24.611,1.722 24.611,1.722c0,0 -12.166,0.239 -26.481,0.708c-0.091,0.335 -0.144,0.679 -0.144,1.038l0,1.416c14.358,0.752 26.582,1.249 26.582,1.249c0,0 -12.229,0.531 -26.582,1.335l0,2.445c14.387,0.43 26.64,0.655 26.64,0.655c0,0 -12.268,0.814 -26.64,1.943l0,2.44c5.732,0.052 11.138,0.076 15.573,0.081c6.732,-0.005 11.22,-0.005 11.22,-0.005c0,0 -12.363,1.096 -26.793,2.555l0,0.235c0,0.737 0.024,1.459 0.062,2.181c5.808,-0.076 11.282,-0.162 15.76,-0.258c6.732,-0.139 11.215,-0.239 11.215,-0.239c0,0 -12.358,1.363 -26.774,3.129c0.086,0.808 0.196,1.617 0.326,2.406c14.453,-0.497 26.797,-1.062 26.797,-1.062c0,0 -4.445,0.598 -11.114,1.507c-4.325,0.589 -9.588,1.326 -15.181,2.129c0.187,0.823 0.392,1.627 0.622,2.431c14.162,-0.794 26.123,-1.593 26.123,-1.593c0,0 -11.578,1.779 -25.348,4.038c0.297,0.837 0.612,1.66 0.952,2.468c13.636,-1.057 24.941,-2.047 24.941,-2.047c0,0 -10.789,1.88 -23.908,4.325c0.422,0.851 0.866,1.693 1.34,2.521c12.841,-1.277 23.2,-2.411 23.2,-2.411c0,0 -9.746,1.918 -21.966,4.449c0.575,0.885 1.177,1.756 1.814,2.603c11.741,-1.445 20.874,-2.66 20.874,-2.66c0,0 -8.473,1.861 -19.506,4.392c0.766,0.919 1.574,1.808 2.411,2.665c10.277,-1.517 17.913,-2.708 17.913,-2.708c0,0 -6.98,1.698 -16.496,4.1c1.014,0.947 2.076,1.852 3.176,2.703c8.359,-1.454 14.225,-2.521 14.225,-2.521c0,0 -5.268,1.416 -12.88,3.521c1.1,0.785 2.234,1.522 3.402,2.206l3.076,0c4.55,-0.933 7.401,-1.526 7.401,-1.526c0,0 -1.923,0.569 -5.114,1.526l39.318,0c13.143,-7.689 21.98,-21.946 21.98,-38.275l0,-14.349c0,-2.205 -1.804,-4.009 -4.01,-4.009Z" style="fill:#fff;fill-rule:nonzero;"/><g transform="matrix(0.75,0,0,0.75,-1.15639,11.9583)"><g transform="matrix(0.917121,-0.398609,0.398609,0.917121,-66.4362,80.1789)"><text x="159.593px" y="199.853px" style="font-family:'CalendasPlus', 'Calendas Plus';font-size:64px;fill:#fff;">C</text></g><g transform="matrix(0.986365,-0.164574,0.164574,0.986365,-27.2944,35.8282)"><text x="202.571px" y="182.632px" style="font-family:'CalendasPlus', 'Calendas Plus';font-size:64px;fill:#fff;">o</text></g><g transform="matrix(0.999987,-0.00500877,0.00500877,0.999987,-0.880935,1.18677)"><text x="236.496px" y="176.471px" style="font-family:'CalendasPlus', 'Calendas Plus';font-size:64px;fill:#fff;"></text></g><g transform="matrix(0.993876,0.110503,-0.110503,0.993876,21.2079,-29.8262)"><text x="279.69px" y="176.421px" style="font-family:'CalendasPlus', 'Calendas Plus';font-size:64px;fill:#fff;">e</text></g><g transform="matrix(0.972696,0.232083,-0.232083,0.972696,50.1206,-66.8246)"><text x="309.064px" y="179.599px" style="font-family:'CalendasPlus', 'Calendas Plus';font-size:64px;fill:#fff;">e</text></g><g transform="matrix(0.901442,0.432901,-0.432901,0.901442,113.78,-128.102)"><text x="338.222px" y="185.829px" style="font-family:'CalendasPlus', 'Calendas Plus';font-size:64px;fill:#fff;">d</text></g></g></svg>